<?xml version="1.0" encoding="utf-8"?>
<!-- Generator: Adobe Illustrator 22.1.0, SVG Export Plug-In . SVG Version: 6.00 Build 0)  -->
<svg version="1.1" id="Layer_1" xmlns="http://www.w3.org/2000/svg" xmlns:xlink="http://www.w3.org/1999/xlink" x="0px" y="0px"
	 viewBox="0 0 37.8 31.2" enable-background="new 0 0 37.8 31.2" xml:space="preserve">
<g>
	<g>
		
			<path fill="none" stroke="#FFFFFF" stroke-width="0.15" stroke-linecap="round" stroke-linejoin="round" stroke-miterlimit="10" d="
			M11.4,24.3h15.4V13H11.4V24.3z"/>
		
			<path fill="none" stroke="#FFFFFF" stroke-width="0.15" stroke-linecap="round" stroke-linejoin="round" stroke-miterlimit="10" d="
			M20.6,17.7c0-0.8-0.7-1.5-1.5-1.5s-1.5,0.7-1.5,1.5c0,0.7,0.4,1.2,1,1.4v1.6c0,0.3,0.2,0.5,0.5,0.5s0.5-0.2,0.5-0.5v-1.6
			C20.2,18.9,20.6,18.3,20.6,17.7z"/>
		
			<path fill="none" stroke="#FFFFFF" stroke-width="0.15" stroke-linecap="round" stroke-linejoin="round" stroke-miterlimit="10" d="
			M24.7,12.8v-2c0-3.1-2.5-5.6-5.6-5.6s-5.6,2.5-5.6,5.6v2"/>
	</g>
	<rect x="10.9" y="12.6" fill="#FFFFFF" width="0.9" height="0.9"/>
	<rect x="26.3" y="12.6" fill="#FFFFFF" width="0.9" height="0.9"/>
	<rect x="10.9" y="23.9" fill="#FFFFFF" width="0.9" height="0.9"/>
	<rect x="26.3" y="23.9" fill="#FFFFFF" width="0.9" height="0.9"/>
</g>
</svg>
