<?xml version="1.0" encoding="utf-8"?>
<!-- Generator: Adobe Illustrator 22.1.0, SVG Export Plug-In . SVG Version: 6.00 Build 0)  -->
<svg version="1.1" id="Layer_1" xmlns="http://www.w3.org/2000/svg" xmlns:xlink="http://www.w3.org/1999/xlink" x="0px" y="0px"
	 viewBox="0 0 37.8 31.2" enable-background="new 0 0 37.8 31.2" xml:space="preserve">
<g>
	
		<path fill="none" stroke="#FFFFFF" stroke-width="0.15" stroke-linecap="round" stroke-linejoin="round" stroke-miterlimit="10" d="
		M23.9,26.7h-10c-0.9,0-1.6-0.7-1.6-1.6V6.3c0-0.9,0.7-1.6,1.6-1.6h10c0.9,0,1.6,0.7,1.6,1.6v18.8C25.5,26,24.8,26.7,23.9,26.7z"/>
	
		<line fill="none" stroke="#FFFFFF" stroke-width="0.15" stroke-linecap="round" stroke-linejoin="round" stroke-miterlimit="10" x1="12.3" y1="7.1" x2="25.5" y2="7.1"/>
	
		<line fill="none" stroke="#FFFFFF" stroke-width="0.15" stroke-linecap="round" stroke-linejoin="round" stroke-miterlimit="10" x1="17.8" y1="25.2" x2="20.2" y2="25.2"/>
	
		<line fill="none" stroke="#FFFFFF" stroke-width="0.15" stroke-linecap="round" stroke-linejoin="round" stroke-miterlimit="10" x1="12.3" y1="23.7" x2="25.5" y2="23.7"/>
	<g>
		
			<path fill="none" stroke="#FFFFFF" stroke-width="0.15" stroke-linecap="round" stroke-linejoin="round" stroke-miterlimit="10" d="
			M16.2,10.2h2.7c1.1,0,2.2,0.7,2.4,1.7c0.4,1.5-0.8,2.8-2.4,2.8h-2"/>
		
			<path fill="none" stroke="#FFFFFF" stroke-width="0.15" stroke-linecap="round" stroke-linejoin="round" stroke-miterlimit="10" d="
			M16.2,19.8h3.2c1.4,0,2.6-0.9,2.8-2.1c0.3-1.6-1-2.9-2.7-2.9h-2.2"/>
		
			<line fill="none" stroke="#FFFFFF" stroke-width="0.15" stroke-linecap="round" stroke-linejoin="round" stroke-miterlimit="10" x1="17" y1="10.5" x2="17" y2="19.8"/>
		<g>
			
				<line fill="none" stroke="#FFFFFF" stroke-width="0.15" stroke-linecap="round" stroke-linejoin="round" stroke-miterlimit="10" x1="17.8" y1="10.2" x2="17.8" y2="8.7"/>
			
				<line fill="none" stroke="#FFFFFF" stroke-width="0.15" stroke-linecap="round" stroke-linejoin="round" stroke-miterlimit="10" x1="19.4" y1="10.5" x2="19.4" y2="8.7"/>
		</g>
		<g>
			
				<line fill="none" stroke="#FFFFFF" stroke-width="0.15" stroke-linecap="round" stroke-linejoin="round" stroke-miterlimit="10" x1="17.8" y1="21.7" x2="17.8" y2="19.8"/>
			
				<line fill="none" stroke="#FFFFFF" stroke-width="0.15" stroke-linecap="round" stroke-linejoin="round" stroke-miterlimit="10" x1="19.4" y1="21.7" x2="19.4" y2="19.8"/>
		</g>
	</g>
</g>
<rect x="25.1" y="6.6" fill="#FFFFFF" width="0.9" height="0.9"/>
<rect x="11.8" y="6.6" fill="#FFFFFF" width="0.9" height="0.9"/>
<rect x="11.8" y="23.2" fill="#FFFFFF" width="0.9" height="0.9"/>
<rect x="25" y="23.2" fill="#FFFFFF" width="0.9" height="0.9"/>
</svg>
