<?xml version="1.0" encoding="utf-8"?>
<!-- Generator: Adobe Illustrator 22.1.0, SVG Export Plug-In . SVG Version: 6.00 Build 0)  -->
<svg version="1.1" id="Layer_1" xmlns="http://www.w3.org/2000/svg" xmlns:xlink="http://www.w3.org/1999/xlink" x="0px" y="0px"
	 viewBox="0 0 121 100.9" style="enable-background:new 0 0 121 100.9;" xml:space="preserve">
<style type="text/css">
	.st0{display:none;}
	.st1{display:inline;}
	.st2{clip-path:url(#SVGID_3_);fill:none;stroke:#FF5665;stroke-width:2;stroke-miterlimit:10;}
	.st3{filter:url(#Adobe_OpacityMaskFilter);}
	.st4{fill:url(#SVGID_5_);}
	.st5{mask:url(#SVGID_2_);}
	.st6{fill:url(#SVGID_7_);}
	.st7{fill:url(#SVGID_8_);}
	.st8{fill:url(#SVGID_9_);}
	.st9{filter:url(#Adobe_OpacityMaskFilter_1_);}
	.st10{fill:url(#SVGID_10_);}
	.st11{mask:url(#SVGID_4_);}
	.st12{fill:url(#SVGID_11_);}
	.st13{fill:url(#SVGID_12_);}
	.st14{fill:url(#SVGID_13_);}
	.st15{filter:url(#Adobe_OpacityMaskFilter_2_);}
	.st16{fill:url(#SVGID_14_);}
	.st17{mask:url(#SVGID_6_);fill:url(#SVGID_15_);}
	.st18{fill:#FF6C00;}
</style>
<g class="st0">
	<g class="st1">
		<g>
			<defs>
				<path id="SVGID_1_" d="M64.7,138.1l4-10.3c0,0-5.2-1.6-10.8-3.1c-5.5-1.5-7.3-7.5-6.2-11.2S28.1,128,28.1,128l17.2,39l36,3.6
					l0.8-9l-10.8-10.5L64.7,138.1z M125.4,101.2l-5.8-9.1L82,85.7l-28.4,9.8l31.8,9.3l11.7,2l14.2,9.2l9.1,17.7l5.9-1.7l4.5-11.7
					L125.4,101.2z"/>
			</defs>
			<clipPath id="SVGID_3_">
				<use xlink:href="#SVGID_1_"  style="overflow:visible;"/>
			</clipPath>
			<path class="st2" d="M84.3,95.7c-15.1,0-28,9.6-32.9,23c-1.4,3.7-2.1,7.8-2.1,12c0,16,10.7,29.5,25.4,33.7"/>
		</g>
	</g>
</g>
<g>
	<defs>
		<filter id="Adobe_OpacityMaskFilter" filterUnits="userSpaceOnUse" x="32.8" y="24.4" width="22.7" height="25.6">
			<feColorMatrix  type="matrix" values="1 0 0 0 0  0 1 0 0 0  0 0 1 0 0  0 0 0 1 0"/>
		</filter>
	</defs>
	<mask maskUnits="userSpaceOnUse" x="32.8" y="24.4" width="22.7" height="25.6" id="SVGID_2_">
		<g class="st3">
			
				<linearGradient id="SVGID_5_" gradientUnits="userSpaceOnUse" x1="-13.6074" y1="585.6826" x2="17.7128" y2="585.6826" gradientTransform="matrix(0.9575 -0.1031 0.1234 1.1467 -30.2158 -634.798)">
				<stop  offset="0" style="stop-color:#231F20"/>
				<stop  offset="0.8506" style="stop-color:#FFFFFF"/>
			</linearGradient>
			<polygon class="st4" points="61,50.7 30.5,54 27,22.5 57.6,19.2 			"/>
		</g>
	</mask>
	<g class="st5">
		
			<linearGradient id="SVGID_7_" gradientUnits="userSpaceOnUse" x1="37.9896" y1="617.6882" x2="49.6767" y2="599.8573" gradientTransform="matrix(1 0 0 1 0 -571.9998)">
			<stop  offset="0" style="stop-color:#B3C1CB;stop-opacity:0.5"/>
			<stop  offset="0.9958" style="stop-color:#545B69"/>
		</linearGradient>
		<path class="st6" d="M52.4,41.9c0-3.9,1.2-7.4,3.1-10.4c-0.3-0.2-0.6-0.4-0.9-0.6c-1.4-0.6-3-1.2-4.5-1.7
			c-1.8-0.6-3.3-0.9-4.5-1.3c-0.2-0.1-0.5-0.2-0.6-0.2c-6.8-1.9-12-3.4-12-3.4c-0.9,3.5,1.1,7.3,4.6,8.3c1.8,0.6,8,2.3,8,2.3
			s-1.2,4.6-2.9,11.5c3.1,3,7.5,4.1,11.6,3.3C53,47.6,52.4,44.9,52.4,41.9z"/>
	</g>
	
		<linearGradient id="SVGID_8_" gradientUnits="userSpaceOnUse" x1="51.1375" y1="627.2678" x2="71.7923" y2="596.4964" gradientTransform="matrix(1 0 0 1 0 -571.9998)">
		<stop  offset="0" style="stop-color:#BCCFE3;stop-opacity:0.5"/>
		<stop  offset="0.2173" style="stop-color:#A9BCCA;stop-opacity:0.6482"/>
		<stop  offset="0.5502" style="stop-color:#90A3A9;stop-opacity:0.8753"/>
		<stop  offset="0.7331" style="stop-color:#86999D"/>
	</linearGradient>
	<path class="st7" d="M58,55c0.4,0.4,1.5,1.4,3,2.7c-3.1-3.1-4.9-7.2-4.9-11.9c0-9.4,7.6-17,17-17c0.6,0,1.2,0,1.8,0.1
		c-2.6-3.1-4.3-4.4-5.5-5.4c-9.4,0.7-17.1,8.7-17.1,18.4C52.4,47.2,54.6,51.6,58,55z"/>
	
		<linearGradient id="SVGID_9_" gradientUnits="userSpaceOnUse" x1="56.1025" y1="625.5526" x2="75.232" y2="624.3152" gradientTransform="matrix(1 0 0 1 0 -571.9998)">
		<stop  offset="0" style="stop-color:#DBE5F5;stop-opacity:0.6"/>
		<stop  offset="0.1739" style="stop-color:#CAD4E4;stop-opacity:0.6695"/>
		<stop  offset="0.5205" style="stop-color:#9CA9B7;stop-opacity:0.8082"/>
		<stop  offset="1" style="stop-color:#546470"/>
	</linearGradient>
	<path class="st8" d="M73.5,53.2c-0.6-0.5-3.6-3.2-5-4.4c-2.4-2.1-2.9-5.8-0.7-8.3c0.7-0.9,1.8-1.6,2.9-1.8
		c-5.6,1.7-9.8,6.8-9.8,12.9c0,3.1,1.1,6.1,3,8.4c0.2,0.2,0.4,0.5,0.6,0.6c3.3,3,6.7,5.9,6.7,5.9s1.9-1.7,3.2-3.3
		c0.2-0.2,0.3-0.4,0.4-0.6C76.9,59.5,75.8,55.2,73.5,53.2z"/>
	<defs>
		<filter id="Adobe_OpacityMaskFilter_1_" filterUnits="userSpaceOnUse" x="27.9" y="16.3" width="17.1" height="11.6">
			<feColorMatrix  type="matrix" values="1 0 0 0 0  0 1 0 0 0  0 0 1 0 0  0 0 0 1 0"/>
		</filter>
	</defs>
	<mask maskUnits="userSpaceOnUse" x="27.9" y="16.3" width="17.1" height="11.6" id="SVGID_4_">
		<g class="st9">
			
				<linearGradient id="SVGID_10_" gradientUnits="userSpaceOnUse" x1="-21.613" y1="580.907" x2="4.0709" y2="587.6514" gradientTransform="matrix(1.0736 1.816234e-02 1.816234e-02 1.0045 37.9475 -562.6378)">
				<stop  offset="0" style="stop-color:#231F20"/>
				<stop  offset="0.7365" style="stop-color:#FFFFFF"/>
			</linearGradient>
			<polygon class="st10" points="51.9,35.4 22.7,28.1 26.5,13 55.7,20.2 			"/>
		</g>
	</mask>
	<g class="st11">
		
			<linearGradient id="SVGID_11_" gradientUnits="userSpaceOnUse" x1="33.5641" y1="602.1849" x2="37.8739" y2="590.6104" gradientTransform="matrix(1 0 0 1 0 -571.9998)">
			<stop  offset="0" style="stop-color:#B3C1CB;stop-opacity:0.7"/>
			<stop  offset="0.951" style="stop-color:#4B657B"/>
		</linearGradient>
		<path class="st12" d="M41.1,20c0,0-12.9-3.6-13-3.7c-0.9,3.5,1.1,7.2,4.6,8.2c3.1,0.9,3.6,1,12.3,3.5C39.4,25.9,41.1,20,41.1,20z"
			/>
	</g>
	
		<linearGradient id="SVGID_12_" gradientUnits="userSpaceOnUse" x1="27.6553" y1="589.5374" x2="68.6709" y2="593.7901" gradientTransform="matrix(1 0 0 1 0 -571.9998)">
		<stop  offset="0" style="stop-color:#687991;stop-opacity:0.4"/>
		<stop  offset="1" style="stop-color:#BECFD8"/>
	</linearGradient>
	<path class="st13" d="M65.6,30.5C65.6,30.6,65.6,30.6,65.6,30.5c2.5-1.2,5.7-2,9.3-1.7c-2.4-3-5-5.4-8.1-7.2
		c-5-2.8-10.8-4.3-16.6-6.1C49.3,15.4,23.4,8,23.3,8l0,0c-0.9,3.5,1.1,7.2,4.6,8.2c5.3,1.5,19.6,5.5,20.4,5.7
		c1.5,0.5,3.1,0.9,4.9,1.4C59,25.1,62.7,27.4,65.6,30.5z"/>
	
		<linearGradient id="SVGID_13_" gradientUnits="userSpaceOnUse" x1="57.0904" y1="629.6102" x2="74.2411" y2="605.9803" gradientTransform="matrix(1 0 0 1 0 -571.9998)">
		<stop  offset="0" style="stop-color:#B1C2D7;stop-opacity:0.4"/>
		<stop  offset="0.951" style="stop-color:#596476"/>
	</linearGradient>
	<path class="st14" d="M77.2,32.3c-0.7-1.3-1.5-2.4-2.3-3.4c-0.6-0.1-1.2-0.1-1.8-0.1c-9.4,0-17,7.6-17,17c0,4.6,1.8,8.8,4.9,11.9
		c0.6,0.6,1.1,1,1.8,1.6c0.6,0.5,1.1,0.9,1.7,1.4c-0.2-0.2-0.4-0.5-0.6-0.6c-1.8-2.3-3-5.3-3-8.4c0-6.2,4.2-11.3,9.8-12.9
		c0,0,0.5-0.2,0.6-0.2c1.7-0.4,3.5,0.1,5,1.3c0.6,0.6,4.5,4,4.5,4S80.3,37.8,77.2,32.3z"/>
	<defs>
		<filter id="Adobe_OpacityMaskFilter_2_" filterUnits="userSpaceOnUse" x="40.8" y="20" width="24.8" height="19.1">
			<feColorMatrix  type="matrix" values="1 0 0 0 0  0 1 0 0 0  0 0 1 0 0  0 0 0 1 0"/>
		</filter>
	</defs>
	<mask maskUnits="userSpaceOnUse" x="40.8" y="20" width="24.8" height="19.1" id="SVGID_6_">
		<g class="st15">
			
				<linearGradient id="SVGID_14_" gradientUnits="userSpaceOnUse" x1="-32.2895" y1="427.3482" x2="-6.6055" y2="434.0925" gradientTransform="matrix(1.2614 7.607994e-02 -0.1529 1.3812 141.1486 -561.8856)">
				<stop  offset="0" style="stop-color:#231F20"/>
				<stop  offset="6.299207e-02" style="stop-color:#363334"/>
				<stop  offset="0.5402" style="stop-color:#C6C4C5"/>
				<stop  offset="0.7481" style="stop-color:#FFFFFF"/>
			</linearGradient>
			<polygon class="st16" points="63.8,47.6 30.6,36.2 37.7,15.6 70.9,26.9 			"/>
		</g>
	</mask>
	
		<linearGradient id="SVGID_15_" gradientUnits="userSpaceOnUse" x1="30.0428" y1="607.9183" x2="71.5601" y2="594.0275" gradientTransform="matrix(1 0 0 1 0 -571.9998)">
		<stop  offset="0" style="stop-color:#A5B2BB;stop-opacity:0.7"/>
		<stop  offset="1" style="stop-color:#606989"/>
	</linearGradient>
	<path class="st17" d="M65.6,30.5c-3-3.1-6.7-5.5-12.3-7.1c-1.7-0.6-3.3-0.9-4.9-1.4c-0.4-0.1-3.1-0.9-6.7-1.9C41.3,20,41,20,41,20
		s-1.8,6.4,4.6,8.2c1.2,0.3,2.8,0.8,4.5,1.3c1.6,0.5,3.1,0.9,4.5,1.7c3.2,1.5,3.9,5.3,2.8,8c1.1-2.5,2.5-4.3,3.9-5.6
		c1.7-1.6,3.1-2.4,3.7-2.7C65.4,30.6,65.6,30.6,65.6,30.5C65.6,30.6,65.6,30.6,65.6,30.5z"/>
</g>
<g>
	<path class="st18" d="M12.6,78.2c0,0-6.1-0.6-7.5,0.2c-0.6,0.3-0.8,0.7-0.8,1.4c0,0.4,0,0.7,0.1,0.9c0,0.2,0.1,0.4,0.2,0.6
		c0.1,0.2,0.3,0.2,0.6,0.3c0.2,0.1,0.6,0.2,0.9,0.3c1,0.2,2,0.5,3,0.7c1,0.2,1.9,0.5,2.8,0.9c0.8,0.4,1.5,0.9,2,1.6
		c0.6,0.7,0.8,1.6,0.8,2.8c0,1-0.2,1.9-0.5,2.5c-0.3,0.6-0.8,1.2-1.4,1.5c-0.6,0.4-1.3,0.6-2.2,0.8s-1.7,0.2-2.8,0.2
		c-3.2,0-6.8-0.5-6.8-0.5l0.3-2.8c0,0,4.1,0.4,6.8,0.4c0.5,0,0.9,0,1.3-0.1c0.4,0,0.7-0.1,1-0.2c0.3-0.2,0.5-0.3,0.6-0.6
		c0.2-0.2,0.2-0.6,0.2-1.2c0-0.4,0-0.7-0.1-0.9c-0.1-0.2-0.2-0.4-0.4-0.6c-0.2-0.2-0.4-0.2-0.6-0.3s-0.6-0.2-1-0.2
		c-1.5-0.3-2.8-0.6-3.8-0.9s-1.9-0.6-2.5-1c-0.6-0.4-1.1-0.9-1.4-1.6C1.2,81.8,1,80.9,1,79.8c0-0.8,0.2-1.5,0.5-2
		c0.3-0.6,0.8-1.1,1.3-1.4c0.6-0.4,1.4-0.7,2.2-0.9c2.8-0.5,8.6,0,8.6,0L12.6,78.2z"/>
	<path class="st18" d="M25.2,92.5V78.3l-5.4-0.1l0.8-2.8h13.8l-0.8,2.8h-4.8v14.2H25.2z"/>
	<path class="st18" d="M41.2,92.5V75.5h12.7l-0.9,2.8h-8.3v3.9h7v2.8h-7v4.6h8.3l0.9,2.8L41.2,92.5L41.2,92.5z"/>
	<path class="st18" d="M72.2,85.1h-3.9l0.2-2.8h7v9c-0.4,0.2-0.8,0.4-1.3,0.6c-0.6,0.2-1.1,0.3-1.7,0.5c-0.6,0.2-1.3,0.2-1.9,0.3
		c-0.6,0.1-1.3,0.1-2,0.1c-1.3,0-2.5-0.1-3.5-0.3c-1-0.2-1.9-0.6-2.6-1.3c-0.7-0.6-1.3-1.6-1.6-2.7c-0.4-1.2-0.6-2.7-0.6-4.6
		c0-1.9,0.2-3.4,0.6-4.6c0.4-1.2,0.9-2,1.7-2.7c0.7-0.6,1.7-1,2.7-1.3c1-0.2,2.2-0.3,3.5-0.3c3.5,0,6.3,0,6.3,0l-0.9,2.8
		c0,0-3.3,0-5.3,0c-0.7,0-1.4,0.1-2,0.2c-0.6,0.1-1.2,0.3-1.6,0.7c-0.5,0.4-0.8,0.9-1,1.7c-0.2,0.8-0.4,1.9-0.4,3.2
		c0,1.3,0.1,2.4,0.2,3.1s0.5,1.4,0.9,1.8c0.4,0.5,0.9,0.7,1.6,0.9c0.6,0.2,1.5,0.2,2.4,0.2c0.6,0,1.1-0.1,1.7-0.2
		c0.6-0.1,1-0.2,1.4-0.3L72.2,85.1L72.2,85.1z"/>
	<path class="st18" d="M82.5,84c0-1.9,0.2-3.5,0.7-4.6c0.5-1.2,1-2,1.8-2.7s1.7-1,2.7-1.3c1-0.2,2.1-0.3,3.3-0.3s2.3,0.1,3.3,0.3
		c1,0.2,2,0.6,2.7,1.3c0.8,0.6,1.4,1.5,1.8,2.7c0.5,1.2,0.7,2.7,0.7,4.6c0,1.9-0.2,3.5-0.7,4.6c-0.5,1.2-1,2-1.8,2.7
		c-0.8,0.6-1.7,1-2.7,1.3s-2.1,0.3-3.3,0.3s-2.3-0.1-3.3-0.3c-1-0.2-2-0.6-2.7-1.3c-0.8-0.6-1.4-1.5-1.8-2.7
		C82.7,87.4,82.5,85.9,82.5,84z M91,77.9c-0.7,0-1.3,0-1.9,0.1c-0.6,0.1-1.1,0.3-1.6,0.6c-0.5,0.4-0.8,0.9-1.1,1.8
		c-0.2,0.8-0.4,2-0.4,3.5c0,1.5,0.2,2.7,0.4,3.5s0.6,1.4,1.1,1.8s1,0.6,1.6,0.6c0.6,0.1,1.3,0.1,1.9,0.1s1.3,0,1.9-0.1
		s1.1-0.3,1.6-0.6c0.5-0.4,0.9-0.9,1.1-1.8c0.2-0.8,0.4-2,0.4-3.5c0-1.5-0.2-2.7-0.4-3.5S95,79,94.5,78.6c-0.5-0.4-1-0.6-1.6-0.6
		C92.3,78,91.7,77.9,91,77.9z"/>
	<path class="st18" d="M118.3,78.2c0,0-6.5-0.6-7.9,0.2c-0.6,0.3-0.8,0.7-0.8,1.4c0,0.4,0,0.7,0.1,0.9c0,0.2,0.1,0.4,0.2,0.6
		c0.1,0.2,0.3,0.2,0.6,0.3c0.2,0.1,0.6,0.2,0.9,0.3c1,0.2,2,0.5,3,0.7c1,0.2,1.9,0.5,2.8,0.9c0.8,0.4,1.5,0.9,2,1.6
		c0.6,0.7,0.8,1.6,0.8,2.8c0,1-0.2,1.9-0.5,2.5s-0.8,1.2-1.4,1.5c-0.6,0.4-1.3,0.6-2.2,0.8c-0.9,0.2-1.7,0.2-2.8,0.2
		c-3.2,0-6.8-0.5-6.8-0.5l0.3-2.8c0,0,4.1,0.4,6.8,0.4c0.5,0,0.9,0,1.3-0.1c0.4,0,0.7-0.1,1-0.2s0.5-0.3,0.6-0.6
		c0.2-0.2,0.2-0.6,0.2-1.2c0-0.4,0-0.7-0.1-0.9c-0.1-0.2-0.2-0.4-0.4-0.6c-0.2-0.2-0.4-0.2-0.6-0.3s-0.6-0.2-1-0.2
		c-1.5-0.3-2.8-0.6-3.8-0.9s-1.9-0.6-2.5-1c-0.6-0.4-1.1-0.9-1.4-1.6c-0.3-0.6-0.5-1.6-0.5-2.7c0-0.8,0.2-1.5,0.5-2
		c0.3-0.6,0.8-1.1,1.3-1.4c0.6-0.4,1.4-0.7,2.2-0.9c2.8-0.5,8.4,0,8.4,0L118.3,78.2z"/>
</g>
</svg>
