<?xml version="1.0" encoding="utf-8"?>
<!-- Generator: Adobe Illustrator 22.1.0, SVG Export Plug-In . SVG Version: 6.00 Build 0)  -->
<svg version="1.1" id="Layer_1" xmlns="http://www.w3.org/2000/svg" xmlns:xlink="http://www.w3.org/1999/xlink" x="0px" y="0px"
	 viewBox="0 0 37.8 31.2" enable-background="new 0 0 37.8 31.2" xml:space="preserve">
<g>
	<g>
		<polygon fill="none" stroke="#FFFFFF" stroke-width="0.15" stroke-miterlimit="10" points="14.9,17.2 14.9,22 19,24.4 23.2,22 
			23.2,17.2 19,14.8 		"/>
		<polyline fill="none" stroke="#FFFFFF" stroke-width="0.15" stroke-miterlimit="10" points="14.9,17.2 19,19.6 23.2,17.2 		"/>
		<line fill="none" stroke="#FFFFFF" stroke-width="0.15" stroke-miterlimit="10" x1="19" y1="24.4" x2="19" y2="19.6"/>
	</g>
	<g>
		<polygon fill="none" stroke="#FFFFFF" stroke-width="0.15" stroke-miterlimit="10" points="4.1,9.2 4.1,14 8.2,16.4 12.3,14 
			12.3,9.2 8.2,6.8 		"/>
		<polyline fill="none" stroke="#FFFFFF" stroke-width="0.15" stroke-miterlimit="10" points="4.1,9.2 8.2,11.6 12.3,9.2 		"/>
		<line fill="none" stroke="#FFFFFF" stroke-width="0.15" stroke-miterlimit="10" x1="8.2" y1="16.4" x2="8.2" y2="11.6"/>
	</g>
	<g>
		<g>
			<line fill="none" stroke="#FFFFFF" stroke-width="0.15" stroke-miterlimit="10" x1="10.8" y1="14.8" x2="11" y2="15"/>
			
				<line fill="none" stroke="#FFFFFF" stroke-width="0.15" stroke-miterlimit="10" stroke-dasharray="0.4823,0.4823" x1="11.4" y1="15.2" x2="14.5" y2="17"/>
			<line fill="none" stroke="#FFFFFF" stroke-width="0.15" stroke-miterlimit="10" x1="14.7" y1="17.1" x2="14.9" y2="17.2"/>
		</g>
	</g>
	<g>
		<polygon fill="none" stroke="#FFFFFF" stroke-width="0.15" stroke-miterlimit="10" points="33.9,9.2 33.9,14 29.8,16.4 25.6,14 
			25.6,9.2 29.8,6.8 		"/>
		<polyline fill="none" stroke="#FFFFFF" stroke-width="0.15" stroke-miterlimit="10" points="33.9,9.2 29.8,11.6 25.6,9.2 		"/>
		<line fill="none" stroke="#FFFFFF" stroke-width="0.15" stroke-miterlimit="10" x1="29.8" y1="16.4" x2="29.8" y2="11.6"/>
	</g>
	<g>
		<g>
			<line fill="none" stroke="#FFFFFF" stroke-width="0.15" stroke-miterlimit="10" x1="27.2" y1="14.9" x2="27" y2="15"/>
			
				<line fill="none" stroke="#FFFFFF" stroke-width="0.15" stroke-miterlimit="10" stroke-dasharray="0.4823,0.4823" x1="26.6" y1="15.2" x2="23.5" y2="17"/>
			<line fill="none" stroke="#FFFFFF" stroke-width="0.15" stroke-miterlimit="10" x1="23.3" y1="17.2" x2="23.1" y2="17.3"/>
		</g>
	</g>
	<g>
		<g>
			<line fill="none" stroke="#FFFFFF" stroke-width="0.15" stroke-miterlimit="10" x1="10.7" y1="24.4" x2="10.9" y2="24.3"/>
			
				<line fill="none" stroke="#FFFFFF" stroke-width="0.15" stroke-miterlimit="10" stroke-dasharray="0.4823,0.4823" x1="11.3" y1="24" x2="14.5" y2="22.2"/>
			<line fill="none" stroke="#FFFFFF" stroke-width="0.15" stroke-miterlimit="10" x1="14.7" y1="22.1" x2="14.9" y2="22"/>
		</g>
	</g>
	<g>
		<g>
			<line fill="none" stroke="#FFFFFF" stroke-width="0.15" stroke-miterlimit="10" x1="27.3" y1="24.3" x2="27.1" y2="24.2"/>
			
				<line fill="none" stroke="#FFFFFF" stroke-width="0.15" stroke-miterlimit="10" stroke-dasharray="0.4823,0.4823" x1="26.7" y1="24" x2="23.5" y2="22.2"/>
			<line fill="none" stroke="#FFFFFF" stroke-width="0.15" stroke-miterlimit="10" x1="23.3" y1="22.1" x2="23.1" y2="22"/>
		</g>
	</g>
</g>
<rect x="33.5" y="8.8" fill="#FFFFFF" width="0.9" height="0.9"/>
<rect x="25.2" y="8.8" fill="#FFFFFF" width="0.9" height="0.9"/>
<rect x="11.9" y="8.8" fill="#FFFFFF" width="0.9" height="0.9"/>
<rect x="7.7" y="15.8" fill="#FFFFFF" width="0.9" height="0.9"/>
<rect x="14.4" y="16.8" fill="#FFFFFF" width="0.9" height="0.9"/>
<rect x="22.7" y="16.8" fill="#FFFFFF" width="0.9" height="0.9"/>
<rect x="18.6" y="23.9" fill="#FFFFFF" width="0.9" height="0.9"/>
<rect x="29.3" y="15.9" fill="#FFFFFF" width="0.9" height="0.9"/>
<rect x="3.6" y="8.8" fill="#FFFFFF" width="0.9" height="0.9"/>
</svg>
