<?xml version="1.0" encoding="utf-8"?>
<!-- Generator: Adobe Illustrator 22.1.0, SVG Export Plug-In . SVG Version: 6.00 Build 0)  -->
<svg version="1.1" id="Layer_1" xmlns="http://www.w3.org/2000/svg" xmlns:xlink="http://www.w3.org/1999/xlink" x="0px" y="0px"
	 viewBox="0 0 2770.5 1332.8" style="enable-background:new 0 0 2770.5 1332.8;" xml:space="preserve">
<style type="text/css">
	.st0{opacity:0.18;}
	.st1{fill:none;stroke:#FFFFFF;stroke-width:0.7759;stroke-miterlimit:10;}
	.st2{opacity:0.3;}
	.st3{filter:url(#Adobe_OpacityMaskFilter);}
	.st4{fill:url(#SVGID_2_);}
	.st5{mask:url(#SVGID_1_);}
	.st6{fill:url(#SVGID_3_);}
	.st7{filter:url(#Adobe_OpacityMaskFilter_1_);}
	.st8{fill:url(#SVGID_5_);}
	.st9{mask:url(#SVGID_4_);}
	.st10{fill:url(#SVGID_6_);}
	.st11{fill:url(#SVGID_7_);}
	.st12{filter:url(#Adobe_OpacityMaskFilter_2_);}
	.st13{fill:url(#SVGID_9_);}
	.st14{mask:url(#SVGID_8_);}
	.st15{fill:url(#SVGID_10_);}
	.st16{fill:url(#SVGID_11_);}
	.st17{filter:url(#Adobe_OpacityMaskFilter_3_);}
	.st18{fill:url(#SVGID_13_);}
	.st19{mask:url(#SVGID_12_);fill:url(#SVGID_14_);}
	.st20{filter:url(#Adobe_OpacityMaskFilter_4_);}
	.st21{fill:url(#SVGID_16_);}
	.st22{mask:url(#SVGID_15_);fill:url(#SVGID_17_);}
	.st23{fill:url(#SVGID_18_);}
	.st24{filter:url(#Adobe_OpacityMaskFilter_5_);}
	.st25{fill:url(#SVGID_20_);}
	.st26{mask:url(#SVGID_19_);}
	.st27{fill:url(#SVGID_21_);}
	.st28{filter:url(#Adobe_OpacityMaskFilter_6_);}
	.st29{fill:url(#SVGID_23_);}
	.st30{mask:url(#SVGID_22_);fill:url(#SVGID_24_);}
	.st31{opacity:0.23;}
	.st32{fill:url(#SVGID_25_);}
	.st33{filter:url(#Adobe_OpacityMaskFilter_7_);}
	.st34{fill:url(#SVGID_27_);}
	.st35{mask:url(#SVGID_26_);}
	.st36{fill:url(#SVGID_28_);}
	.st37{filter:url(#Adobe_OpacityMaskFilter_8_);}
	.st38{fill:url(#SVGID_30_);}
	.st39{mask:url(#SVGID_29_);fill:url(#SVGID_31_);}
	.st40{fill:url(#SVGID_32_);}
	.st41{filter:url(#Adobe_OpacityMaskFilter_9_);}
	.st42{fill:url(#SVGID_34_);}
	.st43{mask:url(#SVGID_33_);}
	.st44{fill:url(#SVGID_35_);}
	.st45{filter:url(#Adobe_OpacityMaskFilter_10_);}
	.st46{fill:url(#SVGID_37_);}
	.st47{mask:url(#SVGID_36_);fill:url(#SVGID_38_);}
	.st48{opacity:0.76;fill:none;stroke:#FFFFFF;stroke-width:0.25;stroke-miterlimit:10;}
	.st49{opacity:0.26;}
	.st50{filter:url(#Adobe_OpacityMaskFilter_11_);}
	.st51{fill:url(#SVGID_40_);}
	.st52{mask:url(#SVGID_39_);}
	.st53{fill:url(#SVGID_41_);}
	.st54{filter:url(#Adobe_OpacityMaskFilter_12_);}
	.st55{fill:url(#SVGID_43_);}
	.st56{mask:url(#SVGID_42_);}
	.st57{fill:url(#SVGID_44_);}
	.st58{fill:url(#SVGID_45_);}
	.st59{filter:url(#Adobe_OpacityMaskFilter_13_);}
	.st60{fill:url(#SVGID_47_);}
	.st61{mask:url(#SVGID_46_);}
	.st62{fill:url(#SVGID_48_);}
	.st63{fill:url(#SVGID_49_);}
	.st64{filter:url(#Adobe_OpacityMaskFilter_14_);}
	.st65{fill:url(#SVGID_51_);}
	.st66{mask:url(#SVGID_50_);fill:url(#SVGID_52_);}
	.st67{filter:url(#Adobe_OpacityMaskFilter_15_);}
	.st68{fill:url(#SVGID_54_);}
	.st69{mask:url(#SVGID_53_);fill:url(#SVGID_55_);}
	.st70{fill:url(#SVGID_56_);}
	.st71{filter:url(#Adobe_OpacityMaskFilter_16_);}
	.st72{fill:url(#SVGID_58_);}
	.st73{mask:url(#SVGID_57_);}
	.st74{fill:url(#SVGID_59_);}
	.st75{filter:url(#Adobe_OpacityMaskFilter_17_);}
	.st76{fill:url(#SVGID_61_);}
	.st77{mask:url(#SVGID_60_);fill:url(#SVGID_62_);}
	.st78{fill:url(#SVGID_63_);}
	.st79{filter:url(#Adobe_OpacityMaskFilter_18_);}
	.st80{fill:url(#SVGID_65_);}
	.st81{mask:url(#SVGID_64_);}
	.st82{fill:url(#SVGID_66_);}
	.st83{filter:url(#Adobe_OpacityMaskFilter_19_);}
	.st84{fill:url(#SVGID_68_);}
	.st85{mask:url(#SVGID_67_);fill:url(#SVGID_69_);}
	.st86{fill:url(#SVGID_70_);}
	.st87{filter:url(#Adobe_OpacityMaskFilter_20_);}
	.st88{fill:url(#SVGID_72_);}
	.st89{mask:url(#SVGID_71_);}
	.st90{fill:url(#SVGID_73_);}
	.st91{filter:url(#Adobe_OpacityMaskFilter_21_);}
	.st92{fill:url(#SVGID_75_);}
	.st93{mask:url(#SVGID_74_);fill:url(#SVGID_76_);}
</style>
<g class="st0">
	<path class="st1" d="M3881.5,1428.8c-1613.1-428-1613.1-428-1903-505.7"/>
	<path class="st1" d="M3831.9,1275.4c-14-3.9-1707.3-457-1966.4-526.5"/>
	<line class="st1" x1="-655.1" y1="-35.3" x2="3827.5" y2="1166.9"/>
	<line class="st1" x1="3822.2" y1="1237.3" x2="-756.2" y2="10.6"/>
	<path class="st1" d="M1878.9,824.7"/>
	<line class="st1" x1="1979.9" y1="888.7" x2="3881.5" y2="1400.3"/>
	<line class="st1" x1="1904.1" y1="830.3" x2="3822.8" y2="1350.1"/>
	<path class="st1" d="M3893.9,1474.2c0,0-1343.7-359.8-1531-410.1"/>
	<path class="st1" d="M1771.2,934.5c2,0.5,1359.5,361.4,2107.8,562.5"/>
	<line class="st1" x1="1014.4" y1="799.5" x2="3860.9" y2="1560.3"/>
</g>
<g class="st2">
	<defs>
		<filter id="Adobe_OpacityMaskFilter" filterUnits="userSpaceOnUse" x="1778.1" y="797.9" width="702.2" height="260.5">
			<feColorMatrix  type="matrix" values="1 0 0 0 0  0 1 0 0 0  0 0 1 0 0  0 0 0 1 0"/>
		</filter>
	</defs>
	<mask maskUnits="userSpaceOnUse" x="1778.1" y="797.9" width="702.2" height="260.5" id="SVGID_1_">
		<g class="st3">
			
				<linearGradient id="SVGID_2_" gradientUnits="userSpaceOnUse" x1="2565.2166" y1="1814.3391" x2="3237.6777" y2="1814.3391" gradientTransform="matrix(1.1506 0.3357 -0.323 1.1072 -615.5211 -1991.0104)">
				<stop  offset="0" style="stop-color:#231F20"/>
				<stop  offset="0.8506" style="stop-color:#FFFFFF"/>
			</linearGradient>
			<polygon class="st4" points="2493.3,1234.3 1696.5,1036.6 1789.7,717.2 2174.7,829.5 			"/>
		</g>
	</mask>
	<g class="st5">
		
			<linearGradient id="SVGID_3_" gradientUnits="userSpaceOnUse" x1="2058.79" y1="1089.4792" x2="2178.5576" y2="906.7507" gradientTransform="matrix(0.9999 -1.674255e-02 1.674257e-02 0.9999 -22.8409 -5.8892)">
			<stop  offset="0" style="stop-color:#B3C1CB;stop-opacity:0.5"/>
			<stop  offset="0.9958" style="stop-color:#545B69"/>
		</linearGradient>
		<path class="st6" d="M2480.2,1058.4c0,0-630.9-169.7-650.3-174.7c-36.9-9.6-59.2-48.8-49.7-85.8c0,0,468.6,125.9,468.6,125.9"/>
	</g>
	<defs>
		<filter id="Adobe_OpacityMaskFilter_1_" filterUnits="userSpaceOnUse" x="1725.2" y="711.8" width="182" height="119.6">
			<feColorMatrix  type="matrix" values="1 0 0 0 0  0 1 0 0 0  0 0 1 0 0  0 0 0 1 0"/>
		</filter>
	</defs>
	<mask maskUnits="userSpaceOnUse" x="1725.2" y="711.8" width="182" height="119.6" id="SVGID_4_">
		<g class="st7">
			
				<linearGradient id="SVGID_5_" gradientUnits="userSpaceOnUse" x1="1862.4197" y1="828.9265" x2="2132.033" y2="899.7242" gradientTransform="matrix(1.0738 1.844512e-04 3.497737e-02 1.004 -330.5638 -76.3488)">
				<stop  offset="0" style="stop-color:#231F20"/>
				<stop  offset="0.7365" style="stop-color:#FFFFFF"/>
			</linearGradient>
			<polygon class="st8" points="1980.2,907 1672.4,836.6 1709,676.8 2016.8,747.3 			"/>
		</g>
	</mask>
	<g class="st9">
		
			<linearGradient id="SVGID_6_" gradientUnits="userSpaceOnUse" x1="1795.4526" y1="892.6835" x2="1840.6926" y2="771.1818" gradientTransform="matrix(0.9999 -1.674255e-02 1.674257e-02 0.9999 -22.8409 -5.8892)">
			<stop  offset="0" style="stop-color:#B3C1CB;stop-opacity:0.7"/>
			<stop  offset="0.951" style="stop-color:#4B657B"/>
		</linearGradient>
		<path class="st10" d="M1864.2,748c0,0-136-36-136.8-36.2c-9.6,37.4,12.9,75.5,50.1,85.4c33.3,8.8,38.1,10.1,129.7,34.2
			C1847.6,810.9,1864.2,748,1864.2,748z"/>
	</g>
	
		<linearGradient id="SVGID_7_" gradientUnits="userSpaceOnUse" x1="1795.6158" y1="816.696" x2="2741.1716" y2="914.735" gradientTransform="matrix(0.9999 -1.674255e-02 1.674257e-02 0.9999 -22.8409 -5.8892)">
		<stop  offset="0" style="stop-color:#687991;stop-opacity:0.4"/>
		<stop  offset="1" style="stop-color:#BECFD8"/>
	</linearGradient>
	<path class="st11" d="M2879.6,1020.3c-18-5-1098.2-294.3-1154.6-309.1c-37.3-9.8-59.8-47.7-50.2-85v0
		c1.6,0.4,1133.8,302.9,1133.8,302.9"/>
	<defs>
		<filter id="Adobe_OpacityMaskFilter_2_" filterUnits="userSpaceOnUse" x="1751.7" y="611.1" width="1398.9" height="446.6">
			<feColorMatrix  type="matrix" values="1 0 0 0 0  0 1 0 0 0  0 0 1 0 0  0 0 0 1 0"/>
		</filter>
	</defs>
	<mask maskUnits="userSpaceOnUse" x="1751.7" y="611.1" width="1398.9" height="446.6" id="SVGID_8_">
		<g class="st12">
			
				<linearGradient id="SVGID_9_" gradientUnits="userSpaceOnUse" x1="2503.5046" y1="1656.9531" x2="3524.02" y2="1656.9531" gradientTransform="matrix(1.1506 0.3357 -0.323 1.1072 -615.5211 -1991.0104)">
				<stop  offset="0" style="stop-color:#231F20"/>
				<stop  offset="0.8506" style="stop-color:#FFFFFF"/>
			</linearGradient>
			<polygon class="st13" points="2879.8,1148 1670.1,849.9 1763.3,530.4 2561.2,743.2 			"/>
		</g>
	</mask>
	<g class="st14">
		
			<linearGradient id="SVGID_10_" gradientUnits="userSpaceOnUse" x1="2313.5784" y1="1105.9856" x2="2560.1643" y2="729.7714" gradientTransform="matrix(0.9999 -1.674255e-02 1.674257e-02 0.9999 -22.8409 -5.8892)">
			<stop  offset="0" style="stop-color:#B3C1CB;stop-opacity:0.5"/>
			<stop  offset="0.9958" style="stop-color:#545B69"/>
		</linearGradient>
		<path class="st15" d="M3150.6,1057.7c0,0-1327.7-355.8-1347-360.8c-36.9-9.6-59.2-48.8-49.7-85.8c0,0,1178.6,315.6,1178.6,315.6"
			/>
	</g>
	
		<linearGradient id="SVGID_11_" gradientUnits="userSpaceOnUse" x1="1939.8833" y1="958.6033" x2="2414.6047" y2="1007.8243" gradientTransform="matrix(0.9999 -1.674255e-02 1.674257e-02 0.9999 -22.8409 -5.8892)">
		<stop  offset="0" style="stop-color:#687991;stop-opacity:0.4"/>
		<stop  offset="1" style="stop-color:#BECFD8"/>
	</linearGradient>
	<path class="st16" d="M2480.2,1058.4c-18-5-494.7-133.8-551.1-148.6c-37.3-9.8-59.8-47.7-50.2-85v0
		c1.6,0.4,530.3,141.6,530.3,141.6"/>
	<defs>
		<filter id="Adobe_OpacityMaskFilter_3_" filterUnits="userSpaceOnUse" x="1976.2" y="888.7" width="386.8" height="175.8">
			<feColorMatrix  type="matrix" values="1 0 0 0 0  0 1 0 0 0  0 0 1 0 0  0 0 0 1 0"/>
		</filter>
	</defs>
	<mask maskUnits="userSpaceOnUse" x="1976.2" y="888.7" width="386.8" height="175.8" id="SVGID_12_">
		<g class="st17">
			
				<linearGradient id="SVGID_13_" gradientUnits="userSpaceOnUse" x1="2414.063" y1="977.5575" x2="2918.554" y2="1110.0317" gradientTransform="matrix(1.2625 5.494947e-02 -0.1297 1.3836 -996.7212 -530.4261)">
				<stop  offset="0" style="stop-color:#231F20"/>
				<stop  offset="6.299207e-02" style="stop-color:#363334"/>
				<stop  offset="0.5402" style="stop-color:#C6C4C5"/>
				<stop  offset="0.7481" style="stop-color:#FFFFFF"/>
			</linearGradient>
			<polygon class="st18" points="2539.2,1243.2 1871.9,1061.1 1942.2,843.1 2292.1,955.8 			"/>
		</g>
	</mask>
	
		<linearGradient id="SVGID_14_" gradientUnits="userSpaceOnUse" x1="1815.8943" y1="1139.7719" x2="2440.7859" y2="930.6971" gradientTransform="matrix(0.9999 -1.674255e-02 1.674257e-02 0.9999 -22.8409 -5.8892)">
		<stop  offset="0" style="stop-color:#A5B2BB;stop-opacity:0.7"/>
		<stop  offset="1" style="stop-color:#606989"/>
	</linearGradient>
	<path class="st19" d="M2362.9,1064.5c0,0-323.1-87.2-335.3-90.5c-67.1-18-49.4-85.3-49.4-85.3l311.8,83.9"/>
	<defs>
		<filter id="Adobe_OpacityMaskFilter_4_" filterUnits="userSpaceOnUse" x="1862.1" y="748" width="708.3" height="262.5">
			<feColorMatrix  type="matrix" values="1 0 0 0 0  0 1 0 0 0  0 0 1 0 0  0 0 0 1 0"/>
		</filter>
	</defs>
	<mask maskUnits="userSpaceOnUse" x="1862.1" y="748" width="708.3" height="262.5" id="SVGID_15_">
		<g class="st20">
			
				<linearGradient id="SVGID_16_" gradientUnits="userSpaceOnUse" x1="2322.3855" y1="874.574" x2="3066.6755" y2="1070.0171" gradientTransform="matrix(1.2625 5.494947e-02 -0.1297 1.3836 -996.7212 -530.4261)">
				<stop  offset="0" style="stop-color:#231F20"/>
				<stop  offset="6.299207e-02" style="stop-color:#363334"/>
				<stop  offset="0.5402" style="stop-color:#C6C4C5"/>
				<stop  offset="0.7481" style="stop-color:#FFFFFF"/>
			</linearGradient>
			<polygon class="st21" points="2743.8,1189.4 1757.9,920.5 1828.1,702.5 2496.6,901.9 			"/>
		</g>
	</mask>
	
		<linearGradient id="SVGID_17_" gradientUnits="userSpaceOnUse" x1="1557.5116" y1="1145.882" x2="2722.7957" y2="756.004" gradientTransform="matrix(0.9999 -1.674255e-02 1.674257e-02 0.9999 -22.8409 -5.8892)">
		<stop  offset="0" style="stop-color:#A5B2BB;stop-opacity:0.7"/>
		<stop  offset="1" style="stop-color:#606989"/>
	</linearGradient>
	<path class="st22" d="M2570.4,1010.5c0,0-644.7-174-656.8-177.2c-67.1-18-49.4-85.3-49.4-85.3l633.3,170.6L2570.4,1010.5z"/>
	<g>
		
			<linearGradient id="SVGID_18_" gradientUnits="userSpaceOnUse" x1="2511.146" y1="904.2313" x2="2985.8062" y2="953.446" gradientTransform="matrix(0.9999 -1.674255e-02 1.674257e-02 0.9999 -22.8409 -5.8892)">
			<stop  offset="0" style="stop-color:#687991;stop-opacity:0.4"/>
			<stop  offset="1" style="stop-color:#BECFD8"/>
		</linearGradient>
		<path class="st23" d="M3050.5,994c-18-5-494.7-133-551.1-147.9c-37.3-9.8-59.8-47.7-50.2-85v0c1.6,0.4,530.3,141.6,530.3,141.6"/>
		<defs>
			<filter id="Adobe_OpacityMaskFilter_5_" filterUnits="userSpaceOnUse" x="2526" y="746.1" width="688.9" height="256.8">
				<feColorMatrix  type="matrix" values="1 0 0 0 0  0 1 0 0 0  0 0 1 0 0  0 0 0 1 0"/>
			</filter>
		</defs>
		<mask maskUnits="userSpaceOnUse" x="2526" y="746.1" width="688.9" height="256.8" id="SVGID_19_">
			<g class="st24">
				
					<linearGradient id="SVGID_20_" gradientUnits="userSpaceOnUse" x1="3152.1677" y1="1589.6034" x2="3824.6289" y2="1589.6034" gradientTransform="matrix(1.1506 0.3357 -0.323 1.1072 -615.5211 -1991.0104)">
					<stop  offset="0" style="stop-color:#231F20"/>
					<stop  offset="0.8506" style="stop-color:#FFFFFF"/>
				</linearGradient>
				<polygon class="st25" points="3241.2,1182.5 2444.5,984.9 2537.7,665.4 2922.7,777.7 				"/>
			</g>
		</mask>
		<g class="st26">
			
				<linearGradient id="SVGID_21_" gradientUnits="userSpaceOnUse" x1="2802.1978" y1="1046.3586" x2="2919.6025" y2="867.2354" gradientTransform="matrix(0.9999 -1.674255e-02 1.674257e-02 0.9999 -22.8409 -5.8892)">
				<stop  offset="0" style="stop-color:#B3C1CB;stop-opacity:0.5"/>
				<stop  offset="0.9958" style="stop-color:#545B69"/>
			</linearGradient>
			<path class="st27" d="M3215,1003c0,0-617.7-166-637-171c-36.9-9.6-59.2-48.8-49.7-85.8c0,0,468.6,125.9,468.6,125.9"/>
		</g>
		<defs>
			<filter id="Adobe_OpacityMaskFilter_6_" filterUnits="userSpaceOnUse" x="2636.5" y="883" width="708.3" height="262.5">
				<feColorMatrix  type="matrix" values="1 0 0 0 0  0 1 0 0 0  0 0 1 0 0  0 0 0 1 0"/>
			</filter>
		</defs>
		<mask maskUnits="userSpaceOnUse" x="2636.5" y="883" width="708.3" height="262.5" id="SVGID_22_">
			<g class="st28">
				
					<linearGradient id="SVGID_23_" gradientUnits="userSpaceOnUse" x1="2943.2068" y1="947.4793" x2="3687.4966" y2="1142.9224" gradientTransform="matrix(1.2625 5.494947e-02 -0.1297 1.3836 -996.7212 -530.4261)">
					<stop  offset="0" style="stop-color:#231F20"/>
					<stop  offset="6.299207e-02" style="stop-color:#363334"/>
					<stop  offset="0.5402" style="stop-color:#C6C4C5"/>
					<stop  offset="0.7481" style="stop-color:#FFFFFF"/>
				</linearGradient>
				<polygon class="st29" points="3518.1,1324.4 2532.2,1055.5 2602.4,837.4 3271,1036.9 				"/>
			</g>
		</mask>
		
			<linearGradient id="SVGID_24_" gradientUnits="userSpaceOnUse" x1="2329.4978" y1="1293.8137" x2="3494.782" y2="903.9356" gradientTransform="matrix(0.9999 -1.674255e-02 1.674257e-02 0.9999 -22.8409 -5.8892)">
			<stop  offset="0" style="stop-color:#A5B2BB;stop-opacity:0.7"/>
			<stop  offset="1" style="stop-color:#606989"/>
		</linearGradient>
		<path class="st30" d="M3344.8,1145.5c0,0-644.7-174-656.8-177.2c-67.1-18-49.4-85.3-49.4-85.3l633.3,170.6L3344.8,1145.5z"/>
	</g>
</g>
<g class="st31">
	
		<linearGradient id="SVGID_25_" gradientUnits="userSpaceOnUse" x1="2252.1824" y1="1188.6025" x2="3146.5879" y2="1281.3381" gradientTransform="matrix(0.9998 -1.843548e-02 1.843548e-02 0.9998 -17.363 35.2555)">
		<stop  offset="0" style="stop-color:#687991;stop-opacity:0.4"/>
		<stop  offset="1" style="stop-color:#BECFD8"/>
	</linearGradient>
	<path class="st32" d="M3291,1407.1c-17.1-4.7-1039.3-276.6-1092.6-290.6c-35.3-9.2-56.6-45-47.6-80.4v0
		c1.5,0.4,1073,284.7,1073,284.7"/>
	<defs>
		<filter id="Adobe_OpacityMaskFilter_7_" filterUnits="userSpaceOnUse" x="2223.4" y="1028" width="1323.9" height="420.2">
			<feColorMatrix  type="matrix" values="1 0 0 0 0  0 1 0 0 0  0 0 1 0 0  0 0 0 1 0"/>
		</filter>
	</defs>
	<mask maskUnits="userSpaceOnUse" x="2223.4" y="1028" width="1323.9" height="420.2" id="SVGID_26_">
		<g class="st33">
			
				<linearGradient id="SVGID_27_" gradientUnits="userSpaceOnUse" x1="2964.3071" y1="1856.4253" x2="3929.6172" y2="1856.4253" gradientTransform="matrix(1.1512 0.3338 -0.3212 1.1077 -613.4034 -1948.8591)">
				<stop  offset="0" style="stop-color:#231F20"/>
				<stop  offset="0.8506" style="stop-color:#FFFFFF"/>
			</linearGradient>
			<polygon class="st34" points="3291.4,1534 2146.7,1253.9 2234.3,951.6 2989.4,1151.6 			"/>
		</g>
	</mask>
	<g class="st35">
		
			<linearGradient id="SVGID_28_" gradientUnits="userSpaceOnUse" x1="2742.0129" y1="1468.3418" x2="2975.2598" y2="1112.4791" gradientTransform="matrix(0.9998 -1.843548e-02 1.843548e-02 0.9998 -17.363 35.2555)">
			<stop  offset="0" style="stop-color:#B3C1CB;stop-opacity:0.5"/>
			<stop  offset="0.9958" style="stop-color:#545B69"/>
		</linearGradient>
		<path class="st36" d="M3547.3,1448.1c0,0-1256.4-334.4-1274.7-339.1c-35-9-56.1-46.1-47.2-81.1c1,0.3,0.3,0.1,1115.3,296.7"/>
	</g>
	<defs>
		<filter id="Adobe_OpacityMaskFilter_8_" filterUnits="userSpaceOnUse" x="2328.1" y="1151.8" width="670.4" height="247.2">
			<feColorMatrix  type="matrix" values="1 0 0 0 0  0 1 0 0 0  0 0 1 0 0  0 0 0 1 0"/>
		</filter>
	</defs>
	<mask maskUnits="userSpaceOnUse" x="2328.1" y="1151.8" width="670.4" height="247.2" id="SVGID_29_">
		<g class="st37">
			
				<linearGradient id="SVGID_30_" gradientUnits="userSpaceOnUse" x1="2712.7527" y1="1121.6962" x2="3416.7798" y2="1306.5667" gradientTransform="matrix(1.2626 5.281166e-02 -0.1274 1.3838 -992.1299 -487.6317)">
				<stop  offset="0" style="stop-color:#231F20"/>
				<stop  offset="6.299207e-02" style="stop-color:#363334"/>
				<stop  offset="0.5402" style="stop-color:#C6C4C5"/>
				<stop  offset="0.7481" style="stop-color:#FFFFFF"/>
			</linearGradient>
			<polygon class="st38" points="3162.8,1567.8 2229.8,1315.1 2295.8,1108.7 2928.5,1296.3 			"/>
		</g>
	</mask>
	
		<linearGradient id="SVGID_31_" gradientUnits="userSpaceOnUse" x1="2026.9474" y1="1500.5809" x2="3129.1951" y2="1131.7935" gradientTransform="matrix(0.9998 -1.843548e-02 1.843548e-02 0.9998 -17.363 35.2555)">
		<stop  offset="0" style="stop-color:#A5B2BB;stop-opacity:0.7"/>
		<stop  offset="1" style="stop-color:#606989"/>
	</linearGradient>
	<path class="st39" d="M2998.5,1399c0,0-610.1-163.5-621.6-166.6c-63.5-17-46.8-80.6-46.8-80.6l599.3,160.4L2998.5,1399z"/>
	<g>
		
			<linearGradient id="SVGID_32_" gradientUnits="userSpaceOnUse" x1="2928.9946" y1="1272.0024" x2="3377.9778" y2="1318.5548" gradientTransform="matrix(0.9998 -1.843548e-02 1.843548e-02 0.9998 -17.363 35.2555)">
			<stop  offset="0" style="stop-color:#687991;stop-opacity:0.4"/>
			<stop  offset="1" style="stop-color:#BECFD8"/>
		</linearGradient>
		<path class="st40" d="M3452.6,1382.6c-17.1-4.7-468.2-125-521.5-139c-35.3-9.2-56.6-45-47.6-80.4v0
			c1.5,0.4,501.8,133.1,501.8,133.1"/>
		<defs>
			<filter id="Adobe_OpacityMaskFilter_9_" filterUnits="userSpaceOnUse" x="2956.1" y="1152.7" width="652" height="246">
				<feColorMatrix  type="matrix" values="1 0 0 0 0  0 1 0 0 0  0 0 1 0 0  0 0 0 1 0"/>
			</filter>
		</defs>
		<mask maskUnits="userSpaceOnUse" x="2956.1" y="1152.7" width="652" height="246" id="SVGID_33_">
			<g class="st41">
				
					<linearGradient id="SVGID_34_" gradientUnits="userSpaceOnUse" x1="3578.438" y1="1794.7175" x2="4214.522" y2="1794.7175" gradientTransform="matrix(1.1512 0.3338 -0.3212 1.1077 -613.4034 -1948.8591)">
					<stop  offset="0" style="stop-color:#231F20"/>
					<stop  offset="0.8506" style="stop-color:#FFFFFF"/>
				</linearGradient>
				<polygon class="st42" points="3633.3,1568.5 2879.3,1382.8 2967,1080.4 3331.3,1186.1 				"/>
			</g>
		</mask>
		<g class="st43">
			
				<linearGradient id="SVGID_35_" gradientUnits="userSpaceOnUse" x1="3203.3821" y1="1413.4592" x2="3314.2654" y2="1244.2854" gradientTransform="matrix(0.9998 -1.843548e-02 1.843548e-02 0.9998 -17.363 35.2555)">
				<stop  offset="0" style="stop-color:#B3C1CB;stop-opacity:0.5"/>
				<stop  offset="0.9958" style="stop-color:#545B69"/>
			</linearGradient>
			<path class="st44" d="M3608.2,1398.6c0,0-584.6-156.1-602.8-160.8c-35-9-56.1-50.2-47.2-85.2c-0.9-0.2-0.3-0.1,443.5,118.3"/>
		</g>
		<defs>
			<filter id="Adobe_OpacityMaskFilter_10_" filterUnits="userSpaceOnUse" x="3060.8" y="1278.2" width="670.4" height="247.2">
				<feColorMatrix  type="matrix" values="1 0 0 0 0  0 1 0 0 0  0 0 1 0 0  0 0 0 1 0"/>
			</filter>
		</defs>
		<mask maskUnits="userSpaceOnUse" x="3060.8" y="1278.2" width="670.4" height="247.2" id="SVGID_36_">
			<g class="st45">
				
					<linearGradient id="SVGID_37_" gradientUnits="userSpaceOnUse" x1="3299.9902" y1="1190.6576" x2="4004.0173" y2="1375.5281" gradientTransform="matrix(1.2626 5.281166e-02 -0.1274 1.3838 -992.1299 -487.6317)">
					<stop  offset="0" style="stop-color:#231F20"/>
					<stop  offset="6.299207e-02" style="stop-color:#363334"/>
					<stop  offset="0.5402" style="stop-color:#C6C4C5"/>
					<stop  offset="0.7481" style="stop-color:#FFFFFF"/>
				</linearGradient>
				<polygon class="st46" points="3895.4,1694.3 2962.4,1441.5 3028.5,1235.2 3661.2,1422.8 				"/>
			</g>
		</mask>
		
			<linearGradient id="SVGID_38_" gradientUnits="userSpaceOnUse" x1="2757.1726" y1="1640.5101" x2="3859.4202" y2="1271.7228" gradientTransform="matrix(0.9998 -1.843548e-02 1.843548e-02 0.9998 -17.363 35.2555)">
			<stop  offset="0" style="stop-color:#A5B2BB;stop-opacity:0.7"/>
			<stop  offset="1" style="stop-color:#606989"/>
		</linearGradient>
		<path class="st47" d="M3731.2,1525.4c0,0-610.1-163.5-621.6-166.6c-63.5-17-46.8-80.6-46.8-80.6l599.3,160.4L3731.2,1525.4z"/>
	</g>
</g>
<line class="st48" x1="2238" y1="776.2" x2="2315.5" y2="797"/>
<g class="st0">
	<path class="st1" d="M3581.7,1348.3C1968.6,920.3-33.8,383.4-323.7,305.7"/>
	<path class="st1" d="M3532.1,1194.9c-14-3.9-3709.8-993.8-3968.9-1063.4"/>
	<path class="st1" d="M-423.3,207.4"/>
	<line class="st1" x1="-322.3" y1="271.3" x2="3581.7" y2="1319.8"/>
	<line class="st1" x1="-398.1" y1="213" x2="3523" y2="1269.6"/>
	<path class="st1" d="M3594.2,1393.7c0,0-3346.2-896.6-3533.5-947"/>
	<line class="st1" x1="-1285.7" y1="253" x2="3017.5" y2="1405.8"/>
	<line class="st1" x1="-1286" y1="218" x2="3055.6" y2="1390.8"/>
	<path class="st1" d="M-531,317.2c2,0.5,3362,898.2,4110.3,1099.3"/>
	<line class="st1" x1="-1287.8" y1="182.2" x2="1558.7" y2="943"/>
</g>
<g class="st49">
	<defs>
		<filter id="Adobe_OpacityMaskFilter_11_" filterUnits="userSpaceOnUse" x="-524.1" y="180.6" width="702.2" height="260.5">
			<feColorMatrix  type="matrix" values="1 0 0 0 0  0 1 0 0 0  0 0 1 0 0  0 0 0 1 0"/>
		</filter>
	</defs>
	<mask maskUnits="userSpaceOnUse" x="-524.1" y="180.6" width="702.2" height="260.5" id="SVGID_39_">
		<g class="st50">
			
				<linearGradient id="SVGID_40_" gradientUnits="userSpaceOnUse" x1="577.0607" y1="1859.6022" x2="1249.522" y2="1859.6022" gradientTransform="matrix(1.1506 0.3357 -0.323 1.1072 -615.5211 -1991.0104)">
				<stop  offset="0" style="stop-color:#231F20"/>
				<stop  offset="0.8506" style="stop-color:#FFFFFF"/>
			</linearGradient>
			<polygon class="st51" points="191.1,617 -605.7,419.3 -512.5,99.9 -127.5,212.2 			"/>
		</g>
	</mask>
	<g class="st52">
		
			<linearGradient id="SVGID_41_" gradientUnits="userSpaceOnUse" x1="-232.7675" y1="433.701" x2="-112.9997" y2="250.9724" gradientTransform="matrix(0.9999 -1.674255e-02 1.674257e-02 0.9999 -22.8409 -5.8892)">
			<stop  offset="0" style="stop-color:#B3C1CB;stop-opacity:0.5"/>
			<stop  offset="0.9958" style="stop-color:#545B69"/>
		</linearGradient>
		<path class="st53" d="M178,441c0,0-630.9-169.7-650.3-174.7c-36.9-9.6-59.2-48.8-49.7-85.8c0,0,468.6,125.9,468.6,125.9"/>
	</g>
	<defs>
		<filter id="Adobe_OpacityMaskFilter_12_" filterUnits="userSpaceOnUse" x="-577" y="94.5" width="182" height="119.6">
			<feColorMatrix  type="matrix" values="1 0 0 0 0  0 1 0 0 0  0 0 1 0 0  0 0 0 1 0"/>
		</filter>
	</defs>
	<mask maskUnits="userSpaceOnUse" x="-577" y="94.5" width="182" height="119.6" id="SVGID_42_">
		<g class="st54">
			
				<linearGradient id="SVGID_43_" gradientUnits="userSpaceOnUse" x1="-261.5821" y1="214.4777" x2="8.0312" y2="285.2755" gradientTransform="matrix(1.0738 1.844512e-04 3.497737e-02 1.004 -330.5638 -76.3488)">
				<stop  offset="0" style="stop-color:#231F20"/>
				<stop  offset="0.7365" style="stop-color:#FFFFFF"/>
			</linearGradient>
			<polygon class="st55" points="-322,289.7 -629.8,219.2 -593.3,59.5 -285.5,129.9 			"/>
		</g>
	</mask>
	<g class="st56">
		
			<linearGradient id="SVGID_44_" gradientUnits="userSpaceOnUse" x1="-496.1048" y1="236.9053" x2="-450.8648" y2="115.4035" gradientTransform="matrix(0.9999 -1.674255e-02 1.674257e-02 0.9999 -22.8409 -5.8892)">
			<stop  offset="0" style="stop-color:#B3C1CB;stop-opacity:0.7"/>
			<stop  offset="0.951" style="stop-color:#4B657B"/>
		</linearGradient>
		<path class="st57" d="M-438,130.7c0,0-136-36-136.8-36.2c-9.6,37.4,12.9,75.5,50.1,85.4c33.3,8.8,38.1,10.1,129.7,34.2
			C-454.6,193.6-438,130.7-438,130.7z"/>
	</g>
	
		<linearGradient id="SVGID_45_" gradientUnits="userSpaceOnUse" x1="-495.9416" y1="160.9178" x2="449.6143" y2="258.9568" gradientTransform="matrix(0.9999 -1.674255e-02 1.674257e-02 0.9999 -22.8409 -5.8892)">
		<stop  offset="0" style="stop-color:#687991;stop-opacity:0.4"/>
		<stop  offset="1" style="stop-color:#BECFD8"/>
	</linearGradient>
	<path class="st58" d="M577.4,403c-18-5-1098.2-294.3-1154.6-309.1c-37.3-9.8-59.8-47.7-50.2-85v0
		c1.6,0.4,1133.8,302.9,1133.8,302.9"/>
	<defs>
		<filter id="Adobe_OpacityMaskFilter_13_" filterUnits="userSpaceOnUse" x="-550.5" y="-6.2" width="1398.9" height="446.6">
			<feColorMatrix  type="matrix" values="1 0 0 0 0  0 1 0 0 0  0 0 1 0 0  0 0 0 1 0"/>
		</filter>
	</defs>
	<mask maskUnits="userSpaceOnUse" x="-550.5" y="-6.2" width="1398.9" height="446.6" id="SVGID_46_">
		<g class="st59">
			
				<linearGradient id="SVGID_47_" gradientUnits="userSpaceOnUse" x1="515.3488" y1="1702.2162" x2="1535.8643" y2="1702.2162" gradientTransform="matrix(1.1506 0.3357 -0.323 1.1072 -615.5211 -1991.0104)">
				<stop  offset="0" style="stop-color:#231F20"/>
				<stop  offset="0.8506" style="stop-color:#FFFFFF"/>
			</linearGradient>
			<polygon class="st60" points="577.6,530.7 -632.1,232.5 -538.9,-86.9 259,125.9 			"/>
		</g>
	</mask>
	<g class="st61">
		
			<linearGradient id="SVGID_48_" gradientUnits="userSpaceOnUse" x1="22.0209" y1="450.2073" x2="268.6069" y2="73.9931" gradientTransform="matrix(0.9999 -1.674255e-02 1.674257e-02 0.9999 -22.8409 -5.8892)">
			<stop  offset="0" style="stop-color:#B3C1CB;stop-opacity:0.5"/>
			<stop  offset="0.9958" style="stop-color:#545B69"/>
		</linearGradient>
		<path class="st62" d="M848.3,440.4c0,0-1327.7-355.8-1347-360.8c-36.9-9.6-59.2-48.8-49.7-85.8c0,0,1178.6,315.6,1178.6,315.6"/>
	</g>
	
		<linearGradient id="SVGID_49_" gradientUnits="userSpaceOnUse" x1="-351.6741" y1="302.825" x2="123.0472" y2="352.046" gradientTransform="matrix(0.9999 -1.674255e-02 1.674257e-02 0.9999 -22.8409 -5.8892)">
		<stop  offset="0" style="stop-color:#687991;stop-opacity:0.4"/>
		<stop  offset="1" style="stop-color:#BECFD8"/>
	</linearGradient>
	<path class="st63" d="M178,441c-18-5-494.7-133.8-551.1-148.6c-37.3-9.8-59.8-47.7-50.2-85v0C-421.7,207.8,107,349,107,349"/>
	<defs>
		<filter id="Adobe_OpacityMaskFilter_14_" filterUnits="userSpaceOnUse" x="-326" y="271.4" width="386.8" height="175.8">
			<feColorMatrix  type="matrix" values="1 0 0 0 0  0 1 0 0 0  0 0 1 0 0  0 0 0 1 0"/>
		</filter>
	</defs>
	<mask maskUnits="userSpaceOnUse" x="-326" y="271.4" width="386.8" height="175.8" id="SVGID_50_">
		<g class="st64">
			
				<linearGradient id="SVGID_51_" gradientUnits="userSpaceOnUse" x1="552.3386" y1="605.3278" x2="1056.8295" y2="737.802" gradientTransform="matrix(1.2625 5.494947e-02 -0.1297 1.3836 -996.7212 -530.4261)">
				<stop  offset="0" style="stop-color:#231F20"/>
				<stop  offset="6.299207e-02" style="stop-color:#363334"/>
				<stop  offset="0.5402" style="stop-color:#C6C4C5"/>
				<stop  offset="0.7481" style="stop-color:#FFFFFF"/>
			</linearGradient>
			<polygon class="st65" points="237,625.9 -430.3,443.8 -360.1,225.8 -10.1,338.5 			"/>
		</g>
	</mask>
	
		<linearGradient id="SVGID_52_" gradientUnits="userSpaceOnUse" x1="-475.6631" y1="483.9936" x2="149.2284" y2="274.9189" gradientTransform="matrix(0.9999 -1.674255e-02 1.674257e-02 0.9999 -22.8409 -5.8892)">
		<stop  offset="0" style="stop-color:#A5B2BB;stop-opacity:0.7"/>
		<stop  offset="1" style="stop-color:#606989"/>
	</linearGradient>
	<path class="st66" d="M60.7,447.1c0,0-323.1-87.2-335.3-90.5c-67.1-18-49.4-85.3-49.4-85.3l311.8,83.9"/>
	<defs>
		<filter id="Adobe_OpacityMaskFilter_15_" filterUnits="userSpaceOnUse" x="-440.1" y="130.7" width="708.3" height="262.5">
			<feColorMatrix  type="matrix" values="1 0 0 0 0  0 1 0 0 0  0 0 1 0 0  0 0 0 1 0"/>
		</filter>
	</defs>
	<mask maskUnits="userSpaceOnUse" x="-440.1" y="130.7" width="708.3" height="262.5" id="SVGID_53_">
		<g class="st67">
			
				<linearGradient id="SVGID_54_" gradientUnits="userSpaceOnUse" x1="460.6612" y1="502.3444" x2="1204.951" y2="697.7874" gradientTransform="matrix(1.2625 5.494947e-02 -0.1297 1.3836 -996.7212 -530.4261)">
				<stop  offset="0" style="stop-color:#231F20"/>
				<stop  offset="6.299207e-02" style="stop-color:#363334"/>
				<stop  offset="0.5402" style="stop-color:#C6C4C5"/>
				<stop  offset="0.7481" style="stop-color:#FFFFFF"/>
			</linearGradient>
			<polygon class="st68" points="441.5,572.1 -544.4,303.1 -474.2,85.1 194.4,284.6 			"/>
		</g>
	</mask>
	
		<linearGradient id="SVGID_55_" gradientUnits="userSpaceOnUse" x1="-734.0458" y1="490.1037" x2="431.2384" y2="100.2257" gradientTransform="matrix(0.9999 -1.674255e-02 1.674257e-02 0.9999 -22.8409 -5.8892)">
		<stop  offset="0" style="stop-color:#A5B2BB;stop-opacity:0.7"/>
		<stop  offset="1" style="stop-color:#606989"/>
	</linearGradient>
	<path class="st69" d="M268.2,393.2c0,0-644.7-174-656.8-177.2c-67.1-18-49.4-85.3-49.4-85.3l633.3,170.6L268.2,393.2z"/>
	<g>
		
			<linearGradient id="SVGID_56_" gradientUnits="userSpaceOnUse" x1="219.5886" y1="248.453" x2="694.2487" y2="297.6677" gradientTransform="matrix(0.9999 -1.674255e-02 1.674257e-02 0.9999 -22.8409 -5.8892)">
			<stop  offset="0" style="stop-color:#687991;stop-opacity:0.4"/>
			<stop  offset="1" style="stop-color:#BECFD8"/>
		</linearGradient>
		<path class="st70" d="M748.3,376.7c-18-5-494.7-133-551.1-147.9c-37.3-9.8-59.8-47.7-50.2-85l0,0c1.6,0.4,530.3,141.6,530.3,141.6
			"/>
		<defs>
			<filter id="Adobe_OpacityMaskFilter_16_" filterUnits="userSpaceOnUse" x="223.8" y="128.8" width="688.9" height="256.8">
				<feColorMatrix  type="matrix" values="1 0 0 0 0  0 1 0 0 0  0 0 1 0 0  0 0 0 1 0"/>
			</filter>
		</defs>
		<mask maskUnits="userSpaceOnUse" x="223.8" y="128.8" width="688.9" height="256.8" id="SVGID_57_">
			<g class="st71">
				
					<linearGradient id="SVGID_58_" gradientUnits="userSpaceOnUse" x1="1164.012" y1="1634.8665" x2="1836.4731" y2="1634.8665" gradientTransform="matrix(1.1506 0.3357 -0.323 1.1072 -615.5211 -1991.0104)">
					<stop  offset="0" style="stop-color:#231F20"/>
					<stop  offset="0.8506" style="stop-color:#FFFFFF"/>
				</linearGradient>
				<polygon class="st72" points="939,565.2 142.3,367.5 235.5,48.1 620.4,160.4 				"/>
			</g>
		</mask>
		<g class="st73">
			
				<linearGradient id="SVGID_59_" gradientUnits="userSpaceOnUse" x1="510.6404" y1="390.5804" x2="628.045" y2="211.4571" gradientTransform="matrix(0.9999 -1.674255e-02 1.674257e-02 0.9999 -22.8409 -5.8892)">
				<stop  offset="0" style="stop-color:#B3C1CB;stop-opacity:0.5"/>
				<stop  offset="0.9958" style="stop-color:#545B69"/>
			</linearGradient>
			<path class="st74" d="M912.7,385.6c0,0-617.7-166-637-171c-36.9-9.6-59.2-48.8-49.7-85.8c0,0,468.6,125.9,468.6,125.9"/>
		</g>
		<defs>
			<filter id="Adobe_OpacityMaskFilter_17_" filterUnits="userSpaceOnUse" x="334.2" y="265.7" width="708.3" height="262.5">
				<feColorMatrix  type="matrix" values="1 0 0 0 0  0 1 0 0 0  0 0 1 0 0  0 0 0 1 0"/>
			</filter>
		</defs>
		<mask maskUnits="userSpaceOnUse" x="334.2" y="265.7" width="708.3" height="262.5" id="SVGID_60_">
			<g class="st75">
				
					<linearGradient id="SVGID_61_" gradientUnits="userSpaceOnUse" x1="1081.4823" y1="575.2496" x2="1825.7722" y2="770.6927" gradientTransform="matrix(1.2625 5.494947e-02 -0.1297 1.3836 -996.7212 -530.4261)">
					<stop  offset="0" style="stop-color:#231F20"/>
					<stop  offset="6.299207e-02" style="stop-color:#363334"/>
					<stop  offset="0.5402" style="stop-color:#C6C4C5"/>
					<stop  offset="0.7481" style="stop-color:#FFFFFF"/>
				</linearGradient>
				<polygon class="st76" points="1215.9,707.1 230,438.1 300.2,220.1 968.8,419.6 				"/>
			</g>
		</mask>
		
			<linearGradient id="SVGID_62_" gradientUnits="userSpaceOnUse" x1="37.9405" y1="638.0354" x2="1203.2246" y2="248.1574" gradientTransform="matrix(0.9999 -1.674255e-02 1.674257e-02 0.9999 -22.8409 -5.8892)">
			<stop  offset="0" style="stop-color:#A5B2BB;stop-opacity:0.7"/>
			<stop  offset="1" style="stop-color:#606989"/>
		</linearGradient>
		<path class="st77" d="M1042.5,528.2c0,0-644.7-174-656.8-177.2c-67.1-18-49.4-85.3-49.4-85.3l633.3,170.6L1042.5,528.2z"/>
	</g>
</g>
<g class="st31">
	
		<linearGradient id="SVGID_63_" gradientUnits="userSpaceOnUse" x1="-38.2617" y1="528.9451" x2="856.144" y2="621.6807" gradientTransform="matrix(0.9998 -1.843548e-02 1.843548e-02 0.9998 -17.363 35.2555)">
		<stop  offset="0" style="stop-color:#687991;stop-opacity:0.4"/>
		<stop  offset="1" style="stop-color:#BECFD8"/>
	</linearGradient>
	<path class="st78" d="M988.8,789.8C971.7,785.1-50.5,513.2-103.8,499.2c-35.3-9.2-56.6-45-47.6-80.4l0,0
		c1.5,0.4,1073,284.7,1073,284.7"/>
	<defs>
		<filter id="Adobe_OpacityMaskFilter_18_" filterUnits="userSpaceOnUse" x="-78.8" y="410.6" width="1323.9" height="420.2">
			<feColorMatrix  type="matrix" values="1 0 0 0 0  0 1 0 0 0  0 0 1 0 0  0 0 0 1 0"/>
		</filter>
	</defs>
	<mask maskUnits="userSpaceOnUse" x="-78.8" y="410.6" width="1323.9" height="420.2" id="SVGID_64_">
		<g class="st79">
			
				<linearGradient id="SVGID_65_" gradientUnits="userSpaceOnUse" x1="976.0803" y1="1898.1899" x2="1941.3904" y2="1898.1899" gradientTransform="matrix(1.1512 0.3338 -0.3212 1.1077 -613.4034 -1948.8591)">
				<stop  offset="0" style="stop-color:#231F20"/>
				<stop  offset="0.8506" style="stop-color:#FFFFFF"/>
			</linearGradient>
			<polygon class="st80" points="989.2,916.6 -155.6,636.6 -67.9,334.3 687.2,534.2 			"/>
		</g>
	</mask>
	<g class="st81">
		
			<linearGradient id="SVGID_66_" gradientUnits="userSpaceOnUse" x1="451.569" y1="808.6844" x2="684.8158" y2="452.8216" gradientTransform="matrix(0.9998 -1.843548e-02 1.843548e-02 0.9998 -17.363 35.2555)">
			<stop  offset="0" style="stop-color:#B3C1CB;stop-opacity:0.5"/>
			<stop  offset="0.9958" style="stop-color:#545B69"/>
		</linearGradient>
		<path class="st82" d="M1245.1,830.8c0,0-1256.4-334.4-1274.7-339.1c-35-9-56.1-46.1-47.2-81.1c1,0.3,0.3,0.1,1115.3,296.7"/>
	</g>
	<defs>
		<filter id="Adobe_OpacityMaskFilter_19_" filterUnits="userSpaceOnUse" x="25.9" y="534.4" width="670.4" height="247.2">
			<feColorMatrix  type="matrix" values="1 0 0 0 0  0 1 0 0 0  0 0 1 0 0  0 0 0 1 0"/>
		</filter>
	</defs>
	<mask maskUnits="userSpaceOnUse" x="25.9" y="534.4" width="670.4" height="247.2" id="SVGID_67_">
		<g class="st83">
			
				<linearGradient id="SVGID_68_" gradientUnits="userSpaceOnUse" x1="851.567" y1="746.6284" x2="1555.5942" y2="931.4988" gradientTransform="matrix(1.2626 5.281166e-02 -0.1274 1.3838 -992.1299 -487.6317)">
				<stop  offset="0" style="stop-color:#231F20"/>
				<stop  offset="6.299207e-02" style="stop-color:#363334"/>
				<stop  offset="0.5402" style="stop-color:#C6C4C5"/>
				<stop  offset="0.7481" style="stop-color:#FFFFFF"/>
			</linearGradient>
			<polygon class="st84" points="860.6,950.5 -72.5,697.7 -6.4,491.4 626.3,679 			"/>
		</g>
	</mask>
	
		<linearGradient id="SVGID_69_" gradientUnits="userSpaceOnUse" x1="-263.4966" y1="840.9235" x2="838.751" y2="472.136" gradientTransform="matrix(0.9998 -1.843548e-02 1.843548e-02 0.9998 -17.363 35.2555)">
		<stop  offset="0" style="stop-color:#A5B2BB;stop-opacity:0.7"/>
		<stop  offset="1" style="stop-color:#606989"/>
	</linearGradient>
	<path class="st85" d="M696.3,781.6c0,0-610.1-163.5-621.6-166.6c-63.5-17-46.8-80.6-46.8-80.6l599.3,160.4L696.3,781.6z"/>
	<g>
		
			<linearGradient id="SVGID_70_" gradientUnits="userSpaceOnUse" x1="638.5506" y1="612.345" x2="1087.5337" y2="658.8973" gradientTransform="matrix(0.9998 -1.843548e-02 1.843548e-02 0.9998 -17.363 35.2555)">
			<stop  offset="0" style="stop-color:#687991;stop-opacity:0.4"/>
			<stop  offset="1" style="stop-color:#BECFD8"/>
		</linearGradient>
		<path class="st86" d="M1150.4,765.3c-17.1-4.7-468.2-125-521.5-139c-35.3-9.2-56.6-45-47.6-80.4v0C582.8,546.3,1083,679,1083,679"
			/>
		<defs>
			<filter id="Adobe_OpacityMaskFilter_20_" filterUnits="userSpaceOnUse" x="653.9" y="535.4" width="652" height="246">
				<feColorMatrix  type="matrix" values="1 0 0 0 0  0 1 0 0 0  0 0 1 0 0  0 0 0 1 0"/>
			</filter>
		</defs>
		<mask maskUnits="userSpaceOnUse" x="653.9" y="535.4" width="652" height="246" id="SVGID_71_">
			<g class="st87">
				
					<linearGradient id="SVGID_72_" gradientUnits="userSpaceOnUse" x1="1590.2112" y1="1836.4822" x2="2226.2954" y2="1836.4822" gradientTransform="matrix(1.1512 0.3338 -0.3212 1.1077 -613.4034 -1948.8591)">
					<stop  offset="0" style="stop-color:#231F20"/>
					<stop  offset="0.8506" style="stop-color:#FFFFFF"/>
				</linearGradient>
				<polygon class="st88" points="1331.1,951.2 577.1,765.4 664.8,463.1 1029.1,568.8 				"/>
			</g>
		</mask>
		<g class="st89">
			
				<linearGradient id="SVGID_73_" gradientUnits="userSpaceOnUse" x1="912.938" y1="753.8018" x2="1023.8214" y2="584.6279" gradientTransform="matrix(0.9998 -1.843548e-02 1.843548e-02 0.9998 -17.363 35.2555)">
				<stop  offset="0" style="stop-color:#B3C1CB;stop-opacity:0.5"/>
				<stop  offset="0.9958" style="stop-color:#545B69"/>
			</linearGradient>
			<path class="st90" d="M1306,781.3c0,0-584.6-156.1-602.8-160.8c-35-9-56.1-50.2-47.2-85.2c-0.9-0.2-0.3-0.1,443.5,118.3"/>
		</g>
		<defs>
			<filter id="Adobe_OpacityMaskFilter_21_" filterUnits="userSpaceOnUse" x="758.6" y="660.9" width="670.4" height="247.2">
				<feColorMatrix  type="matrix" values="1 0 0 0 0  0 1 0 0 0  0 0 1 0 0  0 0 0 1 0"/>
			</filter>
		</defs>
		<mask maskUnits="userSpaceOnUse" x="758.6" y="660.9" width="670.4" height="247.2" id="SVGID_74_">
			<g class="st91">
				
					<linearGradient id="SVGID_75_" gradientUnits="userSpaceOnUse" x1="1438.8046" y1="815.5898" x2="2142.8318" y2="1000.4602" gradientTransform="matrix(1.2626 5.281166e-02 -0.1274 1.3838 -992.1299 -487.6317)">
					<stop  offset="0" style="stop-color:#231F20"/>
					<stop  offset="6.299207e-02" style="stop-color:#363334"/>
					<stop  offset="0.5402" style="stop-color:#C6C4C5"/>
					<stop  offset="0.7481" style="stop-color:#FFFFFF"/>
				</linearGradient>
				<polygon class="st92" points="1593.2,1077 660.2,824.2 726.3,617.8 1359,805.5 				"/>
			</g>
		</mask>
		
			<linearGradient id="SVGID_76_" gradientUnits="userSpaceOnUse" x1="466.7287" y1="980.8527" x2="1568.9763" y2="612.0653" gradientTransform="matrix(0.9998 -1.843548e-02 1.843548e-02 0.9998 -17.363 35.2555)">
			<stop  offset="0" style="stop-color:#A5B2BB;stop-opacity:0.7"/>
			<stop  offset="1" style="stop-color:#606989"/>
		</linearGradient>
		<path class="st93" d="M1429,908.1c0,0-610.1-163.5-621.6-166.6c-63.5-17-46.8-80.6-46.8-80.6l599.3,160.4L1429,908.1z"/>
	</g>
</g>
<path class="st48" d="M101.1,97.5c-4.5,16.4,4,34.7,20.5,39.1l157,42.5"/>
<line class="st48" x1="-64.2" y1="158.9" x2="13.3" y2="179.7"/>
</svg>
