<?xml version="1.0" encoding="utf-8"?>
<!-- Generator: Adobe Illustrator 22.1.0, SVG Export Plug-In . SVG Version: 6.00 Build 0)  -->
<svg version="1.1" id="Layer_2" xmlns="http://www.w3.org/2000/svg" xmlns:xlink="http://www.w3.org/1999/xlink" x="0px" y="0px"
	 viewBox="0 0 83.3 51" style="enable-background:new 0 0 83.3 51;" xml:space="preserve">
<style type="text/css">
	.st0{fill:url(#SVGID_1_);}
	.st1{fill:url(#SVGID_2_);}
	.st2{fill:url(#SVGID_3_);}
</style>
<linearGradient id="SVGID_1_" gradientUnits="userSpaceOnUse" x1="9.956" y1="30.9666" x2="73.1025" y2="30.9666">
	<stop  offset="0" style="stop-color:#25242E;stop-opacity:0.2"/>
	<stop  offset="1" style="stop-color:#25242E"/>
</linearGradient>
<path class="st0" d="M70.4,22.8c-0.1-0.1-1.2-1.3-2.6-2.5c-2.4,2-5.3,4.6-6.8,5.6c-4.1,3.2-11.4,7.6-19.5,7.6
	c-7.8,0-14.9-4.2-19.1-7.4c-3.4-2.3-5.6-4.5-6.9-5.9c-1.3,1.1-2.7,2.4-2.8,2.5L10,25.6l2.7,2.8c0.5,0.5,13,13.2,28.9,13.2
	S69.9,29,70.4,28.4l2.7-2.8L70.4,22.8z"/>
<linearGradient id="SVGID_2_" gradientUnits="userSpaceOnUse" x1="41.4296" y1="31.2749" x2="41.4296" y2="17.4665">
	<stop  offset="0" style="stop-color:#25242E"/>
	<stop  offset="1" style="stop-color:#25242E;stop-opacity:0.2"/>
</linearGradient>
<path class="st1" d="M41.5,17.5c-3.1,0-6.1,0.7-8.9,1.7c-0.3,0.9-0.5,1.9-0.5,2.9c0,5.1,4.1,9.2,9.2,9.2s9.2-4.1,9.2-9.2
	c0-1-0.2-2-0.5-3C47.5,18.1,44.6,17.5,41.5,17.5z M41.4,25.3c-1.8,0-3.2-1.5-3.2-3.2s1.5-3.2,3.2-3.2s3.2,1.5,3.2,3.2
	S43.2,25.3,41.4,25.3z"/>
<linearGradient id="SVGID_3_" gradientUnits="userSpaceOnUse" x1="9.956" y1="20.1333" x2="73.1025" y2="20.1333">
	<stop  offset="0" style="stop-color:#25242E"/>
	<stop  offset="1" style="stop-color:#25242E;stop-opacity:0.2"/>
</linearGradient>
<path class="st2" d="M12.7,28.3c0.1,0.1,1.2,1.3,2.6,2.5c2.4-2,5.3-4.6,6.8-5.6c4.1-3.2,11.4-7.6,19.5-7.6c7.8,0,14.9,4.2,19.1,7.4
	c3.4,2.3,5.6,4.5,6.9,5.9c1.3-1.1,2.7-2.4,2.8-2.5l2.7-2.8l-2.7-2.8c-0.5-0.5-13-13.2-28.9-13.2S13.2,22.1,12.7,22.7L10,25.5
	L12.7,28.3z"/>
</svg>
