<?xml version="1.0" encoding="utf-8"?>
<!-- Generator: Adobe Illustrator 22.1.0, SVG Export Plug-In . SVG Version: 6.00 Build 0)  -->
<svg version="1.1" id="Layer_1" xmlns="http://www.w3.org/2000/svg" xmlns:xlink="http://www.w3.org/1999/xlink" x="0px" y="0px"
	 viewBox="0 0 30 30" style="enable-background:new 0 0 30 30;" xml:space="preserve">
<style type="text/css">
	.st0{fill:#FFFFFF;}
</style>
<path class="st0" d="M26.3,5.9c-0.3-0.5-0.5-0.9-0.9-1.3c-0.4-0.4-0.8-0.7-1.3-1C23.4,3.3,22.4,3,21.4,3H8.6c-1,0-1.9,0.2-2.7,0.6
	C5.4,3.9,4.9,4.3,4.6,4.6C4.2,5,3.9,5.4,3.6,5.9C3.2,6.7,3,7.6,3,8.6v12.8c0,1,0.2,1.9,0.6,2.7c0.3,0.5,0.6,0.9,0.9,1.3
	c0.4,0.4,0.8,0.7,1.3,0.9C6.6,26.8,7.6,27,8.6,27h12.9c1,0,1.9-0.1,2.7-0.6c0.4-0.3,0.9-0.6,1.3-0.9c0.4-0.4,0.7-0.8,0.9-1.3
	c0.4-0.8,0.6-1.8,0.6-2.7V8.6C27,7.6,26.8,6.7,26.3,5.9z M22.3,20c-0.2,0-0.3-0.1-0.7-0.5c-0.1-0.1-0.4-0.6-0.5-0.7
	c-0.1,0.2-0.2,1.5-1.3,2.1c1.1,0.6,1.7,0.9,1.7,1.6c0,0.4-0.5,1-1.4,1.2c-1.1,0.3-2.4,0.3-3.5,0.1C16,23.7,15.8,23.5,15,23
	c-0.8,0.5-1,0.6-1.7,0.8c-1.1,0.3-2.4,0.3-3.5-0.1c-0.9-0.3-1.4-0.8-1.4-1.2c0-0.7,0.6-1.1,1.7-1.6c-1.1-0.7-1.3-2-1.3-2.1
	c-0.1,0.1-0.4,0.6-0.5,0.7C7.9,19.8,7.8,20,7.6,20c-0.6,0-0.8-1.2-0.8-2.1c0-1.2,0.5-1.8,1-2.7c0.2-0.4,0.5-0.6,0.7-0.9
	c0-0.2,0-0.3,0-0.8c0.1-0.8,0.3-1,0.4-1.1c0-0.2,0.1-1.8,0.6-2.8c1.7-3.3,5.1-3.4,5.5-3.4h0c0.4,0,3.7,0.1,5.5,3.4
	c0.6,1,0.6,2.6,0.6,2.8c0.1,0.1,0.3,0.4,0.4,1.1c0.1,0.5,0,0.6,0,0.8c0.2,0.4,0.5,0.6,0.7,0.9c0.5,0.8,1,1.5,1,2.7
	C23.1,18.8,22.9,20,22.3,20z"/>
</svg>
