<?xml version="1.0" encoding="utf-8"?>
<!-- Generator: Adobe Illustrator 22.1.0, SVG Export Plug-In . SVG Version: 6.00 Build 0)  -->
<svg version="1.1" id="Layer_1" xmlns="http://www.w3.org/2000/svg" xmlns:xlink="http://www.w3.org/1999/xlink" x="0px" y="0px"
	 viewBox="0 0 37.8 31.2" enable-background="new 0 0 37.8 31.2" xml:space="preserve">
<rect x="35.8" y="21.3" fill="#FFFFFF" width="0.9" height="0.9"/>
<rect x="28.2" y="8.5" fill="#FFFFFF" width="0.9" height="0.9"/>
<rect x="1.1" y="22.6" fill="#FFFFFF" width="0.9" height="0.9"/>
<rect x="7.4" y="9.7" fill="#FFFFFF" width="0.9" height="0.9"/>
<path fill="none" stroke="#FFFFFF" stroke-width="0.15" stroke-linecap="round" stroke-linejoin="round" stroke-miterlimit="10" d="
	M36.2,21.7l-7.3-1.4L28,19.2"/>
<path fill="none" stroke="#FFFFFF" stroke-width="0.15" stroke-linecap="round" stroke-linejoin="round" stroke-miterlimit="10" d="
	M28.7,9c0.3,0,0.7-0.1,1.3-0.1c0.6,0,1.3,0.1,2.1,0.6c1.8,1.1,2.1,2.3,2.2,3.1c0.1,0.8-2.2,1.8-2.2,1.8l-1.7,4c0,0,0.1,0.6,0.6,0.7
	c0.5,0.1,4.1,1.2,4.1,1.2"/>
<path fill="none" stroke="#FFFFFF" stroke-width="0.15" stroke-linecap="round" stroke-linejoin="round" stroke-miterlimit="10" d="
	M9.6,11.1l17.3,0c0,0,0.9-0.8,0.8-1c0-0.2-9.7-2.4-9.7-2.4s2.6-1.5,5.4-0.8c0.7,0.2,3.4,1,3.4,1"/>
<path fill="none" stroke="#FFFFFF" stroke-width="0.15" stroke-linecap="round" stroke-linejoin="round" stroke-miterlimit="10" d="
	M1.2,21.5l3.2-4.4c0,0,1.4,0.6,2.1,0.7c0.7,0.1,1.1,0,1.1,0s-0.3-0.9-0.2-1.7c0-0.9,0.5-1.7,0.4-2.4c-0.1-0.7-0.5-1-0.6-1.7
	c-0.2-1.1,0.5-1.6,0.5-1.6"/>
<path fill="none" stroke="#FFFFFF" stroke-width="0.15" stroke-linecap="round" stroke-linejoin="round" stroke-miterlimit="10" d="
	M24.8,18.8l-11-1.1c0,0-2.8,2.7-4.6,3c-1.7,0.2-4-1.3-4-1.3L1.5,23"/>
</svg>
