<?xml version="1.0" encoding="utf-8"?>
<!-- Generator: Adobe Illustrator 22.1.0, SVG Export Plug-In . SVG Version: 6.00 Build 0)  -->
<svg version="1.1" id="Layer_1" xmlns="http://www.w3.org/2000/svg" xmlns:xlink="http://www.w3.org/1999/xlink" x="0px" y="0px"
	 viewBox="0 0 424.6 269.7" style="enable-background:new 0 0 424.6 269.7;" xml:space="preserve">
<style type="text/css">
	.st0{filter:url(#Adobe_OpacityMaskFilter);}
	.st1{fill:url(#SVGID_2_);}
	.st2{mask:url(#SVGID_1_);}
	.st3{fill:url(#SVGID_3_);}
	.st4{filter:url(#Adobe_OpacityMaskFilter_1_);}
	.st5{fill:url(#SVGID_5_);}
	.st6{mask:url(#SVGID_4_);}
	.st7{fill:url(#SVGID_6_);}
	.st8{fill:url(#SVGID_7_);}
	.st9{filter:url(#Adobe_OpacityMaskFilter_2_);}
	.st10{fill:url(#SVGID_9_);}
	.st11{mask:url(#SVGID_8_);}
	.st12{fill:url(#SVGID_10_);}
	.st13{fill:url(#SVGID_11_);}
	.st14{filter:url(#Adobe_OpacityMaskFilter_3_);}
	.st15{fill:url(#SVGID_13_);}
	.st16{mask:url(#SVGID_12_);fill:url(#SVGID_14_);}
	.st17{filter:url(#Adobe_OpacityMaskFilter_4_);}
	.st18{fill:url(#SVGID_16_);}
	.st19{mask:url(#SVGID_15_);fill:url(#SVGID_17_);}
	.st20{opacity:0.42;fill:none;stroke:#FFFFFF;stroke-width:0.1;stroke-miterlimit:10;}
	.st21{fill:none;stroke:#FFFFFF;stroke-width:0.1;stroke-miterlimit:10;}
	.st22{fill:none;stroke:#FF6C00;stroke-width:0.5;stroke-miterlimit:10;}
</style>
<defs>
	<filter id="Adobe_OpacityMaskFilter" filterUnits="userSpaceOnUse" x="114.8" y="106.4" width="90.5" height="33.6">
		<feColorMatrix  type="matrix" values="1 0 0 0 0  0 1 0 0 0  0 0 1 0 0  0 0 0 1 0"/>
	</filter>
</defs>
<mask maskUnits="userSpaceOnUse" x="114.8" y="106.4" width="90.5" height="33.6" id="SVGID_1_">
	<g class="st0">
		
			<linearGradient id="SVGID_2_" gradientUnits="userSpaceOnUse" x1="489.0679" y1="602.9807" x2="575.7394" y2="602.9807" gradientTransform="matrix(1.1505 0.336 -0.3233 1.1071 -256.5826 -715.004)">
			<stop  offset="0" style="stop-color:#231F20"/>
			<stop  offset="0.8506" style="stop-color:#FFFFFF"/>
		</linearGradient>
		<polygon class="st1" points="207,162.7 104.3,137.2 116.3,96 165.9,110.5 		"/>
	</g>
</mask>
<g class="st2">
	
		<linearGradient id="SVGID_3_" gradientUnits="userSpaceOnUse" x1="150.4292" y1="147.3662" x2="165.8657" y2="123.8149" gradientTransform="matrix(0.9999 -1.651881e-02 1.651701e-02 0.9999 -2.4939 -6.0711)">
		<stop  offset="0" style="stop-color:#B3C1CB;stop-opacity:0.5"/>
		<stop  offset="0.9958" style="stop-color:#545B69"/>
	</linearGradient>
	<path class="st3" d="M205.3,140c0,0-81.3-21.9-83.8-22.5c-4.8-1.2-7.6-6.3-6.4-11.1c0,0,60.4,16.2,60.4,16.2"/>
</g>
<defs>
	<filter id="Adobe_OpacityMaskFilter_1_" filterUnits="userSpaceOnUse" x="108" y="95.4" width="23.5" height="15.4">
		<feColorMatrix  type="matrix" values="1 0 0 0 0  0 1 0 0 0  0 0 1 0 0  0 0 0 1 0"/>
	</filter>
</defs>
<mask maskUnits="userSpaceOnUse" x="108" y="95.4" width="23.5" height="15.4" id="SVGID_4_">
	<g class="st4">
		
			<linearGradient id="SVGID_5_" gradientUnits="userSpaceOnUse" x1="135.312" y1="116.2988" x2="170.0617" y2="125.4238" gradientTransform="matrix(1.0738 -6.995732e-04 3.580237e-02 1.004 -44.958 -15.5322)">
			<stop  offset="0" style="stop-color:#231F20"/>
			<stop  offset="0.7365" style="stop-color:#FFFFFF"/>
		</linearGradient>
		<polygon class="st5" points="140.9,120.5 101.2,111.5 105.9,90.9 145.6,99.9 		"/>
	</g>
</mask>
<g class="st6">
	
		<linearGradient id="SVGID_6_" gradientUnits="userSpaceOnUse" x1="116.4887" y1="122.0023" x2="122.3196" y2="106.3423" gradientTransform="matrix(0.9999 -1.756581e-02 1.756401e-02 0.9999 -2.6253 -5.8759)">
		<stop  offset="0" style="stop-color:#B3C1CB;stop-opacity:0.7"/>
		<stop  offset="0.951" style="stop-color:#4B657B"/>
	</linearGradient>
	<path class="st7" d="M125.9,100.1c0,0-17.5-4.6-17.6-4.7c-1.2,4.8,1.7,9.7,6.5,11c4.3,1.1,4.9,1.3,16.7,4.4
		C123.8,108.2,125.9,100.1,125.9,100.1z"/>
</g>
<linearGradient id="SVGID_7_" gradientUnits="userSpaceOnUse" x1="113.4379" y1="108.9138" x2="209.681" y2="118.8926" gradientTransform="matrix(0.9999 -1.651881e-02 1.651701e-02 0.9999 -2.4939 -6.0711)">
	<stop  offset="0" style="stop-color:#687991;stop-opacity:0.4"/>
	<stop  offset="1" style="stop-color:#BECFD8"/>
</linearGradient>
<path class="st8" d="M223.9,126.3c0,0-108.7-29.2-116-31.1c-4.8-1.3-7.7-6.1-6.5-11l0,0c0.2,0.1,113.3,30.3,113.3,30.3L223.9,126.3z
	"/>
<defs>
	<filter id="Adobe_OpacityMaskFilter_2_" filterUnits="userSpaceOnUse" x="111.4" y="82.4" width="180.3" height="57.6">
		<feColorMatrix  type="matrix" values="1 0 0 0 0  0 1 0 0 0  0 0 1 0 0  0 0 0 1 0"/>
	</filter>
</defs>
<mask maskUnits="userSpaceOnUse" x="111.4" y="82.4" width="180.3" height="57.6" id="SVGID_8_">
	<g class="st9">
		
			<linearGradient id="SVGID_9_" gradientUnits="userSpaceOnUse" x1="481.1141" y1="582.6956" x2="612.6451" y2="582.6956" gradientTransform="matrix(1.1505 0.336 -0.3233 1.1071 -256.5826 -715.004)">
			<stop  offset="0" style="stop-color:#231F20"/>
			<stop  offset="0.8506" style="stop-color:#FFFFFF"/>
		</linearGradient>
		<polygon class="st10" points="256.8,151.6 100.9,113.1 112.9,71.9 215.8,99.4 		"/>
	</g>
</mask>
<g class="st11">
	
		<linearGradient id="SVGID_10_" gradientUnits="userSpaceOnUse" x1="183.2681" y1="149.4936" x2="215.0498" y2="101.0045" gradientTransform="matrix(0.9999 -1.651881e-02 1.651701e-02 0.9999 -2.4939 -6.0711)">
		<stop  offset="0" style="stop-color:#B3C1CB;stop-opacity:0.5"/>
		<stop  offset="0.9958" style="stop-color:#545B69"/>
	</linearGradient>
	<path class="st12" d="M291.7,139.9c0,0-171.1-45.9-173.6-46.5c-4.8-1.2-7.6-6.3-6.4-11.1c0,0,151.9,40.7,151.9,40.7"/>
</g>
<linearGradient id="SVGID_11_" gradientUnits="userSpaceOnUse" x1="135.1037" y1="130.498" x2="196.2891" y2="136.8419" gradientTransform="matrix(0.9999 -1.651881e-02 1.651701e-02 0.9999 -2.4939 -6.0711)">
	<stop  offset="0" style="stop-color:#687991;stop-opacity:0.4"/>
	<stop  offset="1" style="stop-color:#BECFD8"/>
</linearGradient>
<path class="st13" d="M205.3,140c-2.3-0.6-63.8-17.3-71-19.2c-4.8-1.3-7.7-6.1-6.5-11v0c0.2,0.1,68.3,18.3,68.3,18.3"/>
<defs>
	<filter id="Adobe_OpacityMaskFilter_3_" filterUnits="userSpaceOnUse" x="140.3" y="118.2" width="49.9" height="22.6">
		<feColorMatrix  type="matrix" values="1 0 0 0 0  0 1 0 0 0  0 0 1 0 0  0 0 0 1 0"/>
	</filter>
</defs>
<mask maskUnits="userSpaceOnUse" x="140.3" y="118.2" width="49.9" height="22.6" id="SVGID_12_">
	<g class="st14">
		
			<linearGradient id="SVGID_13_" gradientUnits="userSpaceOnUse" x1="236.4031" y1="137.2845" x2="301.4256" y2="154.3588" gradientTransform="matrix(1.2626 5.391037e-02 -0.1286 1.3837 -147.169 -76.0073)">
			<stop  offset="0" style="stop-color:#231F20"/>
			<stop  offset="6.299207e-02" style="stop-color:#363334"/>
			<stop  offset="0.5402" style="stop-color:#C6C4C5"/>
			<stop  offset="0.7481" style="stop-color:#FFFFFF"/>
		</linearGradient>
		<polygon class="st15" points="212.9,163.8 126.9,140.4 135.9,112.3 181.1,126.8 		"/>
	</g>
</mask>
<linearGradient id="SVGID_14_" gradientUnits="userSpaceOnUse" x1="119.1234" y1="153.8489" x2="199.664" y2="126.9018" gradientTransform="matrix(0.9999 -1.756581e-02 1.756401e-02 0.9999 -2.6253 -5.8759)">
	<stop  offset="0" style="stop-color:#A5B2BB;stop-opacity:0.7"/>
	<stop  offset="1" style="stop-color:#606989"/>
</linearGradient>
<path class="st16" d="M190.2,140.8c0,0-41.7-11.2-43.2-11.6c-8.7-2.3-6.4-11-6.4-11l40.2,10.8"/>
<defs>
	<filter id="Adobe_OpacityMaskFilter_4_" filterUnits="userSpaceOnUse" x="125.6" y="100" width="91.3" height="33.9">
		<feColorMatrix  type="matrix" values="1 0 0 0 0  0 1 0 0 0  0 0 1 0 0  0 0 0 1 0"/>
	</filter>
</defs>
<mask maskUnits="userSpaceOnUse" x="125.6" y="100" width="91.3" height="33.9" id="SVGID_15_">
	<g class="st17">
		
			<linearGradient id="SVGID_16_" gradientUnits="userSpaceOnUse" x1="224.5868" y1="124.0109" x2="320.5161" y2="149.2009" gradientTransform="matrix(1.2625 5.523271e-02 -0.13 1.3836 -146.9645 -76.3541)">
			<stop  offset="0" style="stop-color:#231F20"/>
			<stop  offset="6.299207e-02" style="stop-color:#363334"/>
			<stop  offset="0.5402" style="stop-color:#C6C4C5"/>
			<stop  offset="0.7481" style="stop-color:#FFFFFF"/>
		</linearGradient>
		<polygon class="st18" points="239.3,156.9 112.2,122.2 121.3,94.1 207.4,119.9 		"/>
	</g>
</mask>
<linearGradient id="SVGID_17_" gradientUnits="userSpaceOnUse" x1="85.821" y1="154.6358" x2="236.0109" y2="104.3856" gradientTransform="matrix(0.9999 -1.651881e-02 1.651701e-02 0.9999 -2.4939 -6.0711)">
	<stop  offset="0" style="stop-color:#A5B2BB;stop-opacity:0.7"/>
	<stop  offset="1" style="stop-color:#606989"/>
</linearGradient>
<path class="st19" d="M216.9,133.9c0,0-83.1-22.4-84.6-22.9c-8.7-2.3-6.4-11-6.4-11l81.6,22L216.9,133.9z"/>
<path class="st20" d="M413.6,195.9c0,0-235.9-63.3-272.9-73.3"/>
<path class="st20" d="M418.3,178.4c-1.8-0.5-258.8-69.3-292.2-78.3"/>
<path class="st20" d="M11.6,55.6c0,0,410.1,109.9,410.1,109.9"/>
<line class="st20" x1="419.4" y1="174.1" x2="9.3" y2="64.3"/>
<path class="st21" d="M127.8,109.9"/>
<line class="st20" x1="140.8" y1="118.1" x2="414.6" y2="191.9"/>
<line class="st20" x1="131.1" y1="110.6" x2="415.8" y2="187.7"/>
<path class="st20" d="M412.3,200.5c0,0-198-53.3-222.2-59.8"/>
<line class="st20" x1="-3.3" y1="111.1" x2="407" y2="220.5"/>
<line class="st20" x1="-1.9" y1="106.1" x2="407.9" y2="217"/>
<path class="st20" d="M17.7,32.7c0,0,325.6,87.3,410.1,110.1"/>
<path class="st20" d="M16.4,37.7c0,0,325.8,87.4,410.1,110.1"/>
<path class="st20" d="M113.9,124c0,0,201.1,54.1,297.5,80"/>
<polygon class="st20" points="116.3,106.4 116.8,103.8 119.3,102.3 118.7,104.9 "/>
<line class="st20" x1="-0.8" y1="101.7" x2="409.2" y2="212.3"/>
<line class="st22" x1="178.8" y1="123.5" x2="224.8" y2="136"/>
<line class="st22" x1="136" y1="102.8" x2="160.2" y2="109.4"/>
<line class="st22" x1="168.1" y1="83.5" x2="176.7" y2="85.8"/>
<line class="st22" x1="111.7" y1="114.9" x2="154.7" y2="126.5"/>
</svg>
